<?xml version="1.0" encoding="UTF-8" standalone="no"?>
<!-- Created with Inkscape (http://www.inkscape.org/) -->

<svg
   xmlns:dc="http://purl.org/dc/elements/1.1/"
   xmlns:cc="http://creativecommons.org/ns#"
   xmlns:rdf="http://www.w3.org/1999/02/22-rdf-syntax-ns#"
   xmlns:svg="http://www.w3.org/2000/svg"
   xmlns="http://www.w3.org/2000/svg"
   xmlns:xlink="http://www.w3.org/1999/xlink"
   xmlns:sodipodi="http://sodipodi.sourceforge.net/DTD/sodipodi-0.dtd"
   xmlns:inkscape="http://www.inkscape.org/namespaces/inkscape"
   id="svg2"
   sodipodi:docname="server_1u_front_0.svg"
   viewBox="0 0 950 87.5"
   sodipodi:version="0.32"
   version="1.0"
   inkscape:output_extension="org.inkscape.output.svg.inkscape"
   inkscape:version="0.92.3 (2405546, 2018-03-11)">
  <title
     id="title3152">Black 1U mini-server</title>
  <defs
     id="defs4">
    <linearGradient
       id="linearGradient6105">
      <stop
         id="stop6107"
         style="stop-color:#009200"
         offset="0" />
      <stop
         id="stop6109"
         style="stop-color:#005d00"
         offset="1" />
    </linearGradient>
    <linearGradient
       id="linearGradient6022">
      <stop
         id="stop6024"
         style="stop-color:#5d5d5d"
         offset="0" />
      <stop
         id="stop6030"
         style="stop-color:#3c3c3c;stop-opacity:.99608"
         offset=".5" />
      <stop
         id="stop6026"
         style="stop-color:#1f1f1f;stop-opacity:.99216"
         offset="1" />
    </linearGradient>
    <linearGradient
       id="linearGradient5723">
      <stop
         id="stop5725"
         style="stop-color:#1c1c1c"
         offset="0" />
      <stop
         id="stop5731"
         style="stop-color:#353535"
         offset=".040541" />
      <stop
         id="stop5737"
         style="stop-color:#5f5f5f"
         offset=".49434" />
      <stop
         id="stop5733"
         style="stop-color:#333333"
         offset=".94814" />
      <stop
         id="stop5727"
         style="stop-color:#1c1c1c"
         offset="1" />
    </linearGradient>
    <linearGradient
       id="linearGradient5215">
      <stop
         id="stop5217"
         style="stop-color:#1a1a1a"
         offset="0" />
      <stop
         id="stop5233"
         style="stop-color:#1a1a1a;stop-opacity:.99216"
         offset=".27703" />
      <stop
         id="stop5223"
         style="stop-color:#525252;stop-opacity:.98824"
         offset=".5" />
      <stop
         id="stop5225"
         style="stop-color:#1a1a1a;stop-opacity:.98039"
         offset=".68919" />
      <stop
         id="stop5219"
         style="stop-color:#1a1a1a;stop-opacity:.97391"
         offset="1" />
    </linearGradient>
    <linearGradient
       id="linearGradient5189">
      <stop
         id="stop5191"
         style="stop-color:#282828"
         offset="0" />
      <stop
         id="stop5203"
         style="stop-color:#1a1a1a"
         offset=".44595" />
      <stop
         id="stop5197"
         style="stop-color:#545454"
         offset=".57697" />
      <stop
         id="stop5199"
         style="stop-color:#1a1a1a"
         offset=".72297" />
      <stop
         id="stop5193"
         style="stop-color:#1a1a1a"
         offset="1" />
    </linearGradient>
    <linearGradient
       id="linearGradient4624">
      <stop
         id="stop4626"
         style="stop-color:#bfbfbf"
         offset="0" />
      <stop
         id="stop4628"
         style="stop-color:#f4f4f4"
         offset="1" />
    </linearGradient>
    <linearGradient
       id="linearGradient4632">
      <stop
         id="stop4634"
         style="stop-color:#eeeeee;stop-opacity:.95652"
         offset="0" />
      <stop
         id="stop4636"
         style="stop-color:#333333"
         offset="1" />
    </linearGradient>
    <linearGradient
       id="linearGradient6215"
       y2="149.13"
       gradientUnits="userSpaceOnUse"
       x2="-337.85"
       gradientTransform="matrix(1.0018,0,0,1.02,1.9258,-47.431)"
       y1="70.883"
       x1="-1030.4"
       inkscape:collect="always">
      <stop
         id="stop4773"
         style="stop-color:#232323"
         offset="0" />
      <stop
         id="stop4775"
         style="stop-color:#424242;stop-opacity:.98261"
         offset="1" />
    </linearGradient>
    <linearGradient
       id="linearGradient6237"
       y2="101.52"
       gradientUnits="userSpaceOnUse"
       x2="-96.48"
       gradientTransform="translate(2.7598e-5,7.2456)"
       y1="26.556"
       x1="-486.42"
       inkscape:collect="always">
      <stop
         id="stop5527"
         style="stop-color:#1a1a1a"
         offset="0" />
      <stop
         id="stop5529"
         style="stop-color:#3c3c3c;stop-opacity:.98261"
         offset="1" />
    </linearGradient>
    <linearGradient
       id="linearGradient6239"
       y2="-22.467"
       gradientUnits="userSpaceOnUse"
       x2="-359.71"
       gradientTransform="matrix(0.64812,0,0,0.61905,-129.99,58.693)"
       y1="-32.017"
       x1="-359.71"
       inkscape:collect="always">
      <stop
         id="stop5537"
         style="stop-color:#3c3c3c"
         offset="0" />
      <stop
         id="stop5559"
         style="stop-color:#212121"
         offset=".047297" />
      <stop
         id="stop5543"
         style="stop-color:#1a1a1a"
         offset=".5" />
      <stop
         id="stop5545"
         style="stop-color:#181818"
         offset=".91892" />
      <stop
         id="stop5539"
         style="stop-color:#282828"
         offset="1" />
    </linearGradient>
    <linearGradient
       id="linearGradient6241"
       y2="323.74"
       xlink:href="#linearGradient5723"
       gradientUnits="userSpaceOnUse"
       x2="-470.47"
       gradientTransform="translate(14.665,-178.89)"
       y1="300.76"
       x1="-470.47"
       inkscape:collect="always" />
    <linearGradient
       id="linearGradient6243"
       y2="323.74"
       xlink:href="#linearGradient5723"
       gradientUnits="userSpaceOnUse"
       x2="-470.47"
       gradientTransform="matrix(-1,0,0,1,-754.07,-178.89)"
       y1="300.76"
       x1="-470.47"
       inkscape:collect="always" />
    <linearGradient
       id="linearGradient6245"
       y2="125.11"
       gradientUnits="userSpaceOnUse"
       x2="-373.59"
       gradientTransform="translate(-1.4511,-3.7533)"
       y1="131.19"
       x1="-373.59"
       inkscape:collect="always">
      <stop
         id="stop5674"
         style="stop-color:#1c1c1c"
         offset="0" />
      <stop
         id="stop5680"
         style="stop-color:#666666"
         offset=".5" />
      <stop
         id="stop5676"
         style="stop-color:#1c1c1c"
         offset="1" />
    </linearGradient>
    <linearGradient
       id="linearGradient6247"
       y2="304.33"
       gradientUnits="userSpaceOnUse"
       x2="-383.48"
       gradientTransform="matrix(0.99485,0,0,1,6.907,-158.79)"
       y1="297.91"
       x1="-383.48"
       inkscape:collect="always">
      <stop
         id="stop5708"
         style="stop-color:#1c1c1c"
         offset="0" />
      <stop
         id="stop5714"
         style="stop-color:#737373"
         offset=".5" />
      <stop
         id="stop5710"
         style="stop-color:#1c1c1c"
         offset="1" />
    </linearGradient>
    <linearGradient
       id="linearGradient6249"
       y2="158.56"
       gradientUnits="userSpaceOnUse"
       x2="-369.18"
       gradientTransform="translate(-0.51868,-20.319)"
       y1="167.06"
       x1="-369.18"
       inkscape:collect="always">
      <stop
         id="stop5778"
         style="stop-color:#1c1c1c"
         offset="0" />
      <stop
         id="stop5794"
         style="stop-color:#6d6d6d"
         offset=".39189" />
      <stop
         id="stop5780"
         style="stop-color:#252525"
         offset="1" />
    </linearGradient>
    <linearGradient
       id="linearGradient6251"
       y2="136.12"
       gradientUnits="userSpaceOnUse"
       x2="-368.23"
       gradientTransform="matrix(1.0044,0,0,1,2.0055,0)"
       y1="127.88"
       x1="-368.23"
       inkscape:collect="always">
      <stop
         id="stop5753"
         style="stop-color:#333333"
         offset="0" />
      <stop
         id="stop5759"
         style="stop-color:#0f0f0f"
         offset=".5" />
      <stop
         id="stop5755"
         style="stop-color:#111111"
         offset="1" />
    </linearGradient>
    <radialGradient
       id="radialGradient6253"
       gradientUnits="userSpaceOnUse"
       cy="139.48"
       cx="-419.05"
       gradientTransform="matrix(0.15868,1.3808,-0.86267,0.099135,-232.23,705.44)"
       r="3.7794"
       inkscape:collect="always">
      <stop
         id="stop5817"
         style="stop-color:#00ba00"
         offset="0" />
      <stop
         id="stop5819"
         style="stop-color:#008000"
         offset="1" />
    </radialGradient>
    <linearGradient
       id="linearGradient6255"
       y2="116.09"
       gradientUnits="userSpaceOnUse"
       x2="-316.22"
       y1="116.09"
       x1="-334.97"
       inkscape:collect="always">
      <stop
         id="stop5842"
         style="stop-color:#535353"
         offset="0" />
      <stop
         id="stop5848"
         style="stop-color:#0f0f0f;stop-opacity:.98431"
         offset=".14837" />
      <stop
         id="stop5850"
         style="stop-color:#1a1a1a;stop-opacity:.97647"
         offset=".84459" />
      <stop
         id="stop5844"
         style="stop-color:#535353;stop-opacity:.96522"
         offset="1" />
    </linearGradient>
    <linearGradient
       id="linearGradient6257"
       y2="117.69"
       gradientUnits="userSpaceOnUse"
       x2="-326.13"
       gradientTransform="translate(0.049875,0.030799)"
       y1="114.56"
       x1="-326.13"
       inkscape:collect="always">
      <stop
         id="stop5856"
         style="stop-color:#4d4d4d"
         offset="0" />
      <stop
         id="stop5862"
         style="stop-color:#232323;stop-opacity:.99608"
         offset=".14025" />
      <stop
         id="stop5864"
         style="stop-color:#232323;stop-opacity:.99608"
         offset=".86486" />
      <stop
         id="stop5858"
         style="stop-color:#000000"
         offset="1" />
    </linearGradient>
    <radialGradient
       id="radialGradient6263"
       xlink:href="#linearGradient6105"
       gradientUnits="userSpaceOnUse"
       cy="-765.37"
       cx="-789.83"
       gradientTransform="matrix(0.27091,1.0016,-0.96531,0.2611,-1314.7,225.54)"
       r="15.726"
       inkscape:collect="always" />
    <radialGradient
       id="radialGradient6265"
       gradientUnits="userSpaceOnUse"
       cy="-770.26"
       cx="-785.03"
       gradientTransform="matrix(0.018789,0.78801,-0.54688,0.01304,-1191,-134.15)"
       r="15.726"
       inkscape:collect="always">
      <stop
         id="stop6093"
         style="stop-color:#7eff7e"
         offset="0" />
      <stop
         id="stop6095"
         style="stop-color:#00b600"
         offset="1" />
    </radialGradient>
    <radialGradient
       inkscape:collect="always"
       xlink:href="#linearGradient6105"
       id="radialGradient976"
       gradientUnits="userSpaceOnUse"
       gradientTransform="matrix(0.27091,1.0016,-0.96531,0.2611,-1314.7,225.54)"
       cx="-789.83"
       cy="-765.37"
       r="15.726" />
    <radialGradient
       inkscape:collect="always"
       xlink:href="#linearGradient6105"
       id="radialGradient978"
       gradientUnits="userSpaceOnUse"
       gradientTransform="matrix(0.27091,1.0016,-0.96531,0.2611,-1314.7,225.54)"
       cx="-789.83"
       cy="-765.37"
       r="15.726" />
  </defs>
  <sodipodi:namedview
     id="base"
     fit-margin-left="0"
     inkscape:showpageshadow="false"
     inkscape:zoom="6.835862"
     borderopacity="1.0"
     inkscape:current-layer="layer1"
     inkscape:cx="885.87429"
     inkscape:cy="45.699353"
     inkscape:window-maximized="1"
     showgrid="false"
     fit-margin-right="0"
     inkscape:guide-bbox="true"
     showguides="true"
     bordercolor="#666666"
     inkscape:window-x="0"
     guidetolerance="10"
     objecttolerance="10"
     inkscape:window-y="0"
     fit-margin-bottom="0"
     inkscape:window-width="1920"
     inkscape:pageopacity="0.0"
     inkscape:pageshadow="2"
     pagecolor="#ffffff"
     gridtolerance="10000"
     inkscape:document-units="px"
     inkscape:window-height="1003"
     showborder="false"
     fit-margin-top="0">
    <sodipodi:guide
       id="guide4559"
       position="-361.73272,628.87403"
       orientation="0,1"
       inkscape:locked="false" />
  </sodipodi:namedview>
  <g
     id="layer1"
     inkscape:label="Layer 1"
     inkscape:groupmode="layer"
     transform="translate(1082.2 -17.182)">
    <g
       id="g1298">
      <g
         transform="matrix(1,0,0,1.0057,0,2.10988)"
         id="g4829">
        <g
           transform="matrix(1,0,0,0.99429,77.27,-181.33)"
           id="g4030">
          <path
             d="m -1063.4,197.44 v 87.5 h 483.97 v -87.5 z"
             inkscape:connector-curvature="0"
             style="fill:#000000;fill-rule:evenodd"
             id="path3996" />
          <g
             id="g4026">
            <rect
               x="-1034.4"
               y="249.94"
               width="180"
               height="35"
               ry="8.5"
               rx="8.5"
               style="fill:#999999;fill-rule:evenodd"
               id="rect4004" />
            <path
               d="m -854.42,263.82 v 12.625 c 0,4.709 -3.791,8.5 -8.5,8.5 h -163 c -4.709,0 -8.5,-3.791 -8.5,-8.5 V 263.82"
               inkscape:connector-curvature="0"
               style="fill:#666666;fill-rule:evenodd"
               id="rect4012" />
          </g>
        </g>
        <path
           d="m -986.09,14.986 v 87 h 483.97 v -87 z m 22.094,9.2282 c 2.9309,-0.28403 6.5067,3.8599 4.4063,6.3075 l -2.1875,2.4857 -4.375,5.0025 -2.1563,2.4546 c -2.5691,2.863 -8.774,-1.8066 -6.5312,-5.0336 0.0723,-0.1041 0.1597,-0.20995 0.25,-0.31072 l 2.1875,-2.4546 4.375,-5.0025 2.1875,-2.4857 c 0.529,-0.61549 1.1674,-0.89767 1.8437,-0.96321 z m 19.344,0 c 2.9309,-0.28403 6.5066,3.8599 4.4062,6.3075 l -2.1562,2.4857 -4.375,5.0025 -2.1875,2.4546 c -2.5691,2.863 -8.7427,-1.8066 -6.5,-5.0336 0.0723,-0.1041 0.1597,-0.20995 0.25,-0.31072 l 2.1562,-2.4546 4.4063,-5.0025 2.1562,-2.4857 c 0.529,-0.61549 1.1674,-0.89767 1.8438,-0.96321 z m 19.375,0 c 2.9309,-0.28403 6.5066,3.8599 4.4062,6.3075 l -2.1875,2.4857 -4.375,5.0025 -2.1562,2.4546 c -2.5691,2.863 -8.774,-1.8066 -6.5313,-5.0336 0.0724,-0.1041 0.1597,-0.20995 0.25,-0.31072 l 2.1875,-2.4546 4.375,-5.0025 2.1875,-2.4857 c 0.529,-0.61549 1.1674,-0.89767 1.8438,-0.96321 z m 19.344,0 c 2.9309,-0.28403 6.5067,3.8599 4.4062,6.3075 l -2.1562,2.4857 -4.375,5.0025 -2.1875,2.4546 c -2.5691,2.863 -8.7427,-1.8066 -6.5,-5.0336 0.0724,-0.1041 0.1597,-0.20995 0.25,-0.31072 l 2.1563,-2.4546 4.4062,-5.0025 2.1562,-2.4857 c 0.52899,-0.61549 1.1674,-0.89767 1.8438,-0.96321 z m 19.375,0 c 2.9309,-0.28403 6.5066,3.8599 4.4062,6.3075 l -2.1875,2.4857 -4.375,5.0025 -2.1562,2.4546 c -2.5691,2.863 -8.774,-1.8066 -6.5312,-5.0336 0.0724,-0.1041 0.1597,-0.20995 0.25,-0.31072 l 2.1875,-2.4546 4.375,-5.0025 2.1875,-2.4857 c 0.52899,-0.61549 1.1674,-0.89767 1.8438,-0.96321 z m 19.344,0 c 2.9309,-0.28403 6.5066,3.8599 4.4062,6.3075 l -2.1562,2.4857 -4.375,5.0025 -2.1875,2.4546 c -2.5691,2.863 -8.7427,-1.8066 -6.5,-5.0336 0.0724,-0.1041 0.1597,-0.20995 0.25,-0.31072 l 2.1562,-2.4546 4.4062,-5.0025 2.1562,-2.4857 c 0.52899,-0.61549 1.1674,-0.89767 1.8438,-0.96321 z m 19.375,0 c 2.9309,-0.28403 6.5066,3.8599 4.4062,6.3075 l -2.1875,2.4857 -4.375,5.0025 -2.1562,2.4546 c -2.5691,2.863 -8.7739,-1.8066 -6.5312,-5.0336 0.0724,-0.1041 0.1597,-0.20995 0.25,-0.31072 l 2.1875,-2.4546 4.375,-5.0025 2.1875,-2.4857 c 0.52899,-0.61549 1.1674,-0.89767 1.8438,-0.96321 z m 19.344,0 c 2.9309,-0.28403 6.5066,3.8599 4.4062,6.3075 l -2.1562,2.4857 -4.375,5.0025 -2.1875,2.4546 c -2.5691,2.863 -8.7427,-1.8066 -6.5,-5.0336 0.0724,-0.1041 0.15969,-0.20995 0.25,-0.31072 l 2.1562,-2.4546 4.4062,-5.0025 2.1562,-2.4857 c 0.52899,-0.61549 1.1674,-0.89767 1.8438,-0.96321 z m 19.375,0 c 2.9309,-0.28403 6.5066,3.8599 4.4062,6.3075 l -2.1875,2.4857 -4.375,5.0025 -2.1562,2.4546 c -2.5691,2.863 -8.7739,-1.8066 -6.5312,-5.0336 0.0724,-0.1041 0.15969,-0.20995 0.25,-0.31072 l 2.1875,-2.4546 4.375,-5.0025 2.1875,-2.4857 c 0.52899,-0.61549 1.1674,-0.89767 1.8438,-0.96321 z m 19.344,0 c 2.9309,-0.28403 6.5066,3.8599 4.4062,6.3075 l -2.1562,2.4857 -4.375,5.0025 -2.1875,2.4546 c -2.5691,2.863 -8.7427,-1.8066 -6.5,-5.0336 0.0724,-0.1041 0.15969,-0.20995 0.25,-0.31072 l 2.1562,-2.4546 4.4062,-5.0025 2.1562,-2.4857 c 0.52899,-0.61549 1.1674,-0.89767 1.8438,-0.96321 z m 19.375,0 c 2.9309,-0.28403 6.5066,3.8599 4.4062,6.3075 l -2.1875,2.4857 -4.375,5.0025 -2.1562,2.4546 c -2.5691,2.863 -8.7739,-1.8066 -6.5312,-5.0336 0.0724,-0.1041 0.15969,-0.20995 0.25,-0.31072 l 2.1875,-2.4546 4.375,-5.0025 2.1875,-2.4857 c 0.52899,-0.61549 1.1674,-0.89767 1.8438,-0.96321 z m 19.344,0 c 2.9309,-0.28403 6.5066,3.8599 4.4062,6.3075 l -2.1562,2.4857 -4.375,5.0025 -2.1875,2.4546 c -2.5691,2.863 -8.7427,-1.8066 -6.5,-5.0336 0.0724,-0.1041 0.15969,-0.20995 0.25,-0.31072 l 2.1562,-2.4546 4.4062,-5.0025 2.1562,-2.4857 c 0.52899,-0.61549 1.1674,-0.89767 1.8438,-0.96321 z m 19.375,0 c 2.9309,-0.28403 6.5066,3.8599 4.4062,6.3075 l -2.1875,2.4857 -4.375,5.0025 -2.1562,2.4546 c -2.5691,2.863 -8.7739,-1.8066 -6.5312,-5.0336 0.0724,-0.1041 0.15969,-0.20995 0.25,-0.31072 l 2.1875,-2.4546 4.375,-5.0025 2.1875,-2.4857 c 0.52899,-0.61549 1.1674,-0.89767 1.8438,-0.96321 z m 19.344,0 c 2.9309,-0.28403 6.5066,3.8599 4.4062,6.3075 l -2.1562,2.4857 -4.375,5.0025 -2.1875,2.4546 c -2.5691,2.863 -8.7427,-1.8066 -6.5,-5.0336 0.0724,-0.1041 0.15975,-0.20995 0.25,-0.31072 l 2.1562,-2.4546 4.4062,-5.0025 2.1562,-2.4857 c 0.52899,-0.61549 1.1674,-0.89767 1.8438,-0.96321 z m 19.375,0 c 2.9309,-0.28403 6.5067,3.8599 4.4062,6.3075 l -2.1875,2.4857 -4.375,5.0025 -2.1562,2.4546 c -2.5691,2.863 -8.774,-1.8066 -6.5312,-5.0336 0.0724,-0.1041 0.1597,-0.20995 0.25,-0.31072 l 2.1875,-2.4546 4.375,-5.0025 2.1875,-2.4857 c 0.52899,-0.61549 1.1674,-0.89767 1.8438,-0.96321 z m 19.344,0 c 2.9309,-0.28403 6.5066,3.8599 4.4062,6.3075 l -2.1562,2.4857 -4.375,5.0025 -2.1875,2.4546 c -2.5691,2.863 -8.7427,-1.8066 -6.5,-5.0336 0.0724,-0.1041 0.1597,-0.20995 0.25,-0.31072 l 2.1562,-2.4546 4.4062,-5.0025 2.1562,-2.4857 c 0.52899,-0.61549 1.1674,-0.89767 1.8438,-0.96321 z m 19.375,0 c 2.9309,-0.28403 6.5066,3.8599 4.4062,6.3075 l -2.1875,2.4857 -4.375,5.0025 -2.1562,2.4546 c -2.5691,2.863 -8.774,-1.8066 -6.5312,-5.0336 0.0724,-0.1041 0.1597,-0.20995 0.25,-0.31072 l 2.1875,-2.4546 4.375,-5.0025 2.1562,-2.4857 c 0.52899,-0.61549 1.1986,-0.89767 1.875,-0.96321 z m 19.344,0 c 2.9309,-0.28403 6.5066,3.8599 4.4062,6.3075 l -2.1562,2.4857 -4.375,5.0025 -2.1875,2.4546 c -2.5691,2.863 -8.7427,-1.8066 -6.5,-5.0336 0.0724,-0.1041 0.1597,-0.20995 0.25,-0.31072 l 2.1562,-2.4546 4.375,-5.0025 2.1875,-2.4857 c 0.52899,-0.61549 1.1674,-0.89767 1.8438,-0.96321 z m 19.375,0 c 2.9309,-0.28403 6.5066,3.8599 4.4062,6.3075 l -2.1875,2.4857 -4.375,5.0025 -2.1562,2.4546 c -2.5691,2.863 -8.7739,-1.8066 -6.5312,-5.0336 0.0724,-0.1041 0.1597,-0.20995 0.25,-0.31072 l 2.1875,-2.4546 4.375,-5.0025 2.1562,-2.4857 c 0.52899,-0.61549 1.1986,-0.89767 1.875,-0.96321 z m 19.344,0 c 2.9309,-0.28403 6.5066,3.8599 4.4062,6.3075 l -2.1562,2.4857 -4.375,5.0025 -2.1875,2.4546 c -2.5691,2.863 -8.7427,-1.8066 -6.5,-5.0336 0.0724,-0.1041 0.15969,-0.20995 0.25,-0.31072 l 2.1562,-2.4546 4.375,-5.0025 2.1875,-2.4857 c 0.52899,-0.61549 1.1674,-0.89767 1.8438,-0.96321 z m 19.375,0 c 2.9309,-0.28403 6.5066,3.8599 4.4062,6.3075 l -2.1875,2.4857 -4.375,5.0025 -2.1562,2.4546 c -2.5691,2.863 -8.7739,-1.8066 -6.5312,-5.0336 0.0724,-0.1041 0.15969,-0.20995 0.25,-0.31072 l 2.1875,-2.4546 4.375,-5.0025 2.1562,-2.4857 c 0.52899,-0.61549 1.1986,-0.89767 1.875,-0.96321 z m 19.344,0 c 2.9309,-0.28403 6.5066,3.8599 4.4062,6.3075 l -2.1562,2.4857 -4.375,5.0025 -2.1875,2.4546 c -2.5691,2.863 -8.7427,-1.8066 -6.5,-5.0336 0.0724,-0.1041 0.15969,-0.20995 0.25,-0.31072 l 2.1562,-2.4546 4.375,-5.0025 2.1875,-2.4857 c 0.52899,-0.61549 1.1674,-0.89767 1.8438,-0.96321 z m 19.375,0 c 2.9309,-0.28403 6.5066,3.8599 4.4062,6.3075 l -2.1875,2.4857 -4.375,5.0025 -2.1562,2.4546 c -2.5691,2.863 -8.7739,-1.8066 -6.5312,-5.0336 0.0724,-0.1041 0.15969,-0.20995 0.25,-0.31072 l 2.1875,-2.4546 4.375,-5.0025 2.1562,-2.4857 c 0.52899,-0.61549 1.1986,-0.89767 1.875,-0.96321 z m 19.344,0 c 2.9309,-0.28403 6.5066,3.8599 4.4062,6.3075 l -2.1562,2.4857 -4.375,5.0025 -2.1875,2.4546 c -2.5691,2.863 -8.7427,-1.8066 -6.5,-5.0336 0.0724,-0.1041 0.15969,-0.20995 0.25,-0.31072 l 2.1562,-2.4546 4.375,-5.0025 2.1875,-2.4857 c 0.52899,-0.61549 1.1674,-0.89767 1.8438,-0.96321 z m -445.25,24.609 c 2.9309,-0.28404 6.5067,3.891 4.4063,6.3386 l -2.1875,2.4546 -4.375,5.0025 -2.1563,2.4857 c -2.5691,2.863 -8.774,-1.8377 -6.5312,-5.0646 0.0723,-0.1041 0.1597,-0.17888 0.25,-0.27964 l 2.1875,-2.4857 4.375,-5.0025 2.1875,-2.4546 c 0.529,-0.6155 1.1674,-0.92874 1.8437,-0.99429 z m 19.344,0 c 2.9309,-0.28404 6.5066,3.891 4.4062,6.3386 l -2.1562,2.4546 -4.375,5.0025 -2.1875,2.4857 c -2.5691,2.863 -8.7427,-1.8377 -6.5,-5.0646 0.0723,-0.1041 0.1597,-0.17888 0.25,-0.27964 l 2.1562,-2.4857 4.4063,-5.0025 2.1562,-2.4546 c 0.529,-0.6155 1.1674,-0.92874 1.8438,-0.99429 z m 19.375,0 c 2.9309,-0.28404 6.5066,3.891 4.4062,6.3386 l -2.1875,2.4546 -4.375,5.0025 -2.1562,2.4857 c -2.5691,2.863 -8.774,-1.8377 -6.5313,-5.0646 0.0724,-0.1041 0.1597,-0.17888 0.25,-0.27964 l 2.1875,-2.4857 4.375,-5.0025 2.1875,-2.4546 c 0.529,-0.6155 1.1674,-0.92874 1.8438,-0.99429 z m 19.344,0 c 2.9309,-0.28404 6.5067,3.891 4.4062,6.3386 l -2.1562,2.4546 -4.375,5.0025 -2.1875,2.4857 c -2.5691,2.863 -8.7427,-1.8377 -6.5,-5.0646 0.0724,-0.1041 0.1597,-0.17888 0.25,-0.27964 l 2.1563,-2.4857 4.4062,-5.0025 2.1562,-2.4546 c 0.52899,-0.6155 1.1674,-0.92874 1.8438,-0.99429 z m 19.375,0 c 2.9309,-0.28404 6.5066,3.891 4.4062,6.3386 l -2.1875,2.4546 -4.375,5.0025 -2.1562,2.4857 c -2.5691,2.863 -8.774,-1.8377 -6.5312,-5.0646 0.0724,-0.1041 0.1597,-0.17888 0.25,-0.27964 l 2.1875,-2.4857 4.375,-5.0025 2.1875,-2.4546 c 0.52899,-0.6155 1.1674,-0.92874 1.8438,-0.99429 z m 19.344,0 c 2.9309,-0.28404 6.5066,3.891 4.4062,6.3386 l -2.1562,2.4546 -4.375,5.0025 -2.1875,2.4857 c -2.5691,2.863 -8.7427,-1.8377 -6.5,-5.0646 0.0724,-0.1041 0.1597,-0.17888 0.25,-0.27964 l 2.1562,-2.4857 4.4062,-5.0025 2.1562,-2.4546 c 0.52899,-0.6155 1.1674,-0.92874 1.8438,-0.99429 z m 19.375,0 c 2.9309,-0.28404 6.5066,3.891 4.4062,6.3386 l -2.1875,2.4546 -4.375,5.0025 -2.1562,2.4857 c -2.5691,2.863 -8.7739,-1.8377 -6.5312,-5.0646 0.0724,-0.1041 0.1597,-0.17888 0.25,-0.27964 l 2.1875,-2.4857 4.375,-5.0025 2.1875,-2.4546 c 0.52899,-0.6155 1.1674,-0.92874 1.8438,-0.99429 z m 19.344,0 c 2.9309,-0.28404 6.5066,3.891 4.4062,6.3386 l -2.1562,2.4546 -4.375,5.0025 -2.1875,2.4857 c -2.5691,2.863 -8.7427,-1.8377 -6.5,-5.0646 0.0724,-0.1041 0.15969,-0.17888 0.25,-0.27964 l 2.1562,-2.4857 4.4062,-5.0025 2.1562,-2.4546 c 0.52899,-0.6155 1.1674,-0.92874 1.8438,-0.99429 z m 19.375,0 c 2.9309,-0.28404 6.5066,3.891 4.4062,6.3386 l -2.1875,2.4546 -4.375,5.0025 -2.1562,2.4857 c -2.5691,2.863 -8.7739,-1.8377 -6.5312,-5.0646 0.0724,-0.1041 0.15969,-0.17888 0.25,-0.27964 l 2.1875,-2.4857 4.375,-5.0025 2.1875,-2.4546 c 0.52899,-0.6155 1.1674,-0.92874 1.8438,-0.99429 z m 19.344,0 c 2.9309,-0.28404 6.5066,3.891 4.4062,6.3386 l -2.1562,2.4546 -4.375,5.0025 -2.1875,2.4857 c -2.5691,2.863 -8.7427,-1.8377 -6.5,-5.0646 0.0724,-0.1041 0.15969,-0.17888 0.25,-0.27964 l 2.1562,-2.4857 4.4062,-5.0025 2.1562,-2.4546 c 0.52899,-0.6155 1.1674,-0.92874 1.8438,-0.99429 z m 19.375,0 c 2.9309,-0.28404 6.5066,3.891 4.4062,6.3386 l -2.1875,2.4546 -4.375,5.0025 -2.1562,2.4857 c -2.5691,2.863 -8.7739,-1.8377 -6.5312,-5.0646 0.0724,-0.1041 0.15969,-0.17888 0.25,-0.27964 l 2.1875,-2.4857 4.375,-5.0025 2.1875,-2.4546 c 0.52899,-0.6155 1.1674,-0.92874 1.8438,-0.99429 z m 19.344,0 c 2.9309,-0.28404 6.5066,3.891 4.4062,6.3386 l -2.1562,2.4546 -4.375,5.0025 -2.1875,2.4857 c -2.5691,2.863 -8.7427,-1.8377 -6.5,-5.0646 0.0724,-0.1041 0.15969,-0.17888 0.25,-0.27964 l 2.1562,-2.4857 4.4062,-5.0025 2.1562,-2.4546 c 0.52899,-0.6155 1.1674,-0.92874 1.8438,-0.99429 z m 19.375,0 c 2.9309,-0.28404 6.5066,3.891 4.4062,6.3386 l -2.1875,2.4546 -4.375,5.0025 -2.1562,2.4857 c -2.5691,2.863 -8.7739,-1.8377 -6.5312,-5.0646 0.0724,-0.1041 0.15969,-0.17888 0.25,-0.27964 l 2.1875,-2.4857 4.375,-5.0025 2.1875,-2.4546 c 0.52899,-0.6155 1.1674,-0.92874 1.8438,-0.99429 z m 19.344,0 c 2.9309,-0.28404 6.5066,3.891 4.4062,6.3386 l -2.1562,2.4546 -4.375,5.0025 -2.1875,2.4857 c -2.5691,2.863 -8.7427,-1.8377 -6.5,-5.0646 0.0724,-0.1041 0.15975,-0.17888 0.25,-0.27964 l 2.1562,-2.4857 4.4062,-5.0025 2.1562,-2.4546 c 0.52899,-0.6155 1.1674,-0.92874 1.8438,-0.99429 z m 19.375,0 c 2.9309,-0.28404 6.5067,3.891 4.4062,6.3386 l -2.1875,2.4546 -4.375,5.0025 -2.1562,2.4857 c -2.5691,2.863 -8.774,-1.8377 -6.5312,-5.0646 0.0724,-0.1041 0.1597,-0.17888 0.25,-0.27964 l 2.1875,-2.4857 4.375,-5.0025 2.1875,-2.4546 c 0.52899,-0.6155 1.1674,-0.92874 1.8438,-0.99429 z m 19.344,0 c 2.9309,-0.28404 6.5066,3.891 4.4062,6.3386 l -2.1562,2.4546 -4.375,5.0025 -2.1875,2.4857 c -2.5691,2.863 -8.7427,-1.8377 -6.5,-5.0646 0.0724,-0.1041 0.1597,-0.17888 0.25,-0.27964 l 2.1562,-2.4857 4.4062,-5.0025 2.1562,-2.4546 c 0.52899,-0.6155 1.1674,-0.92874 1.8438,-0.99429 z m 19.375,0 c 2.9309,-0.28404 6.5066,3.891 4.4062,6.3386 l -2.1875,2.4546 -4.375,5.0025 -2.1562,2.4857 c -2.5691,2.863 -8.774,-1.8377 -6.5312,-5.0646 0.0724,-0.1041 0.1597,-0.17888 0.25,-0.27964 l 2.1875,-2.4857 4.375,-5.0025 2.1562,-2.4546 c 0.52899,-0.6155 1.1986,-0.92874 1.875,-0.99429 z m 19.344,0 c 2.9309,-0.28404 6.5066,3.891 4.4062,6.3386 l -2.1562,2.4546 -4.375,5.0025 -2.1875,2.4857 c -2.5691,2.863 -8.7427,-1.8377 -6.5,-5.0646 0.0724,-0.1041 0.1597,-0.17888 0.25,-0.27964 l 2.1562,-2.4857 4.375,-5.0025 2.1875,-2.4546 c 0.52899,-0.6155 1.1674,-0.92874 1.8438,-0.99429 z m 19.375,0 c 2.9309,-0.28404 6.5066,3.891 4.4062,6.3386 l -2.1875,2.4546 -4.375,5.0025 -2.1562,2.4857 c -2.5691,2.863 -8.7739,-1.8377 -6.5312,-5.0646 0.0724,-0.1041 0.1597,-0.17888 0.25,-0.27964 l 2.1875,-2.4857 4.375,-5.0025 2.1562,-2.4546 c 0.52899,-0.6155 1.1986,-0.92874 1.875,-0.99429 z m 19.344,0 c 2.9309,-0.28404 6.5066,3.891 4.4062,6.3386 l -2.1562,2.4546 -4.375,5.0025 -2.1875,2.4857 c -2.5691,2.863 -8.7427,-1.8377 -6.5,-5.0646 0.0724,-0.1041 0.15969,-0.17888 0.25,-0.27964 l 2.1562,-2.4857 4.375,-5.0025 2.1875,-2.4546 c 0.52899,-0.6155 1.1674,-0.92874 1.8438,-0.99429 z m 19.375,0 c 2.9309,-0.28404 6.5066,3.891 4.4062,6.3386 l -2.1875,2.4546 -4.375,5.0025 -2.1562,2.4857 c -2.5691,2.863 -8.7739,-1.8377 -6.5312,-5.0646 0.0724,-0.1041 0.15969,-0.17888 0.25,-0.27964 l 2.1875,-2.4857 4.375,-5.0025 2.1562,-2.4546 c 0.52899,-0.6155 1.1986,-0.92874 1.875,-0.99429 z m 19.344,0 c 2.9309,-0.28404 6.5066,3.891 4.4062,6.3386 l -2.1562,2.4546 -4.375,5.0025 -2.1875,2.4857 c -2.5691,2.863 -8.7427,-1.8377 -6.5,-5.0646 0.0724,-0.1041 0.15969,-0.17888 0.25,-0.27964 l 2.1562,-2.4857 4.375,-5.0025 2.1875,-2.4546 c 0.52899,-0.6155 1.1674,-0.92874 1.8438,-0.99429 z m 19.375,0 c 2.9309,-0.28404 6.5066,3.891 4.4062,6.3386 l -2.1875,2.4546 -4.375,5.0025 -2.1562,2.4857 c -2.5691,2.863 -8.7739,-1.8377 -6.5312,-5.0646 0.0724,-0.1041 0.15969,-0.17888 0.25,-0.27964 l 2.1875,-2.4857 4.375,-5.0025 2.1562,-2.4546 c 0.52899,-0.6155 1.1986,-0.92874 1.875,-0.99429 z m 19.344,0 c 2.9309,-0.28404 6.5066,3.891 4.4062,6.3386 l -2.1562,2.4546 -4.375,5.0025 -2.1875,2.4857 c -2.5691,2.863 -8.7427,-1.8377 -6.5,-5.0646 0.0724,-0.1041 0.15969,-0.17888 0.25,-0.27964 l 2.1562,-2.4857 4.375,-5.0025 2.1875,-2.4546 c 0.52899,-0.6155 1.1674,-0.92874 1.8438,-0.99429 z m -445.25,24.64 c 2.9309,-0.28404 6.5067,3.8599 4.4063,6.3075 l -2.1875,2.4857 -4.375,5.0025 -2.1563,2.4546 c -2.5691,2.863 -8.774,-1.8066 -6.5312,-5.0336 0.0723,-0.1041 0.1597,-0.20994 0.25,-0.31071 l 2.1875,-2.4546 4.375,-5.0025 2.1875,-2.4857 c 0.529,-0.6155 1.1674,-0.89767 1.8437,-0.96321 z m 19.344,0 c 2.9309,-0.28404 6.5066,3.8599 4.4062,6.3075 l -2.1562,2.4857 -4.375,5.0025 -2.1875,2.4546 c -2.5691,2.863 -8.7427,-1.8066 -6.5,-5.0336 0.0723,-0.1041 0.1597,-0.20994 0.25,-0.31071 l 2.1562,-2.4546 4.4063,-5.0025 2.1562,-2.4857 c 0.529,-0.6155 1.1674,-0.89767 1.8438,-0.96321 z m 19.375,0 c 2.9309,-0.28404 6.5066,3.8599 4.4062,6.3075 l -2.1875,2.4857 -4.375,5.0025 -2.1562,2.4546 c -2.5691,2.863 -8.774,-1.8066 -6.5313,-5.0336 0.0724,-0.1041 0.1597,-0.20994 0.25,-0.31071 l 2.1875,-2.4546 4.375,-5.0025 2.1875,-2.4857 c 0.529,-0.6155 1.1674,-0.89767 1.8438,-0.96321 z m 19.344,0 c 2.9309,-0.28404 6.5067,3.8599 4.4062,6.3075 l -2.1562,2.4857 -4.375,5.0025 -2.1875,2.4546 c -2.5691,2.863 -8.7427,-1.8066 -6.5,-5.0336 0.0724,-0.1041 0.1597,-0.20994 0.25,-0.31071 l 2.1563,-2.4546 4.4062,-5.0025 2.1562,-2.4857 c 0.52899,-0.6155 1.1674,-0.89767 1.8438,-0.96321 z m 19.375,0 c 2.9309,-0.28404 6.5066,3.8599 4.4062,6.3075 l -2.1875,2.4857 -4.375,5.0025 -2.1562,2.4546 c -2.5691,2.863 -8.774,-1.8066 -6.5312,-5.0336 0.0724,-0.1041 0.1597,-0.20994 0.25,-0.31071 l 2.1875,-2.4546 4.375,-5.0025 2.1875,-2.4857 c 0.52899,-0.6155 1.1674,-0.89767 1.8438,-0.96321 z m 19.344,0 c 2.9309,-0.28404 6.5066,3.8599 4.4062,6.3075 l -2.1562,2.4857 -4.375,5.0025 -2.1875,2.4546 c -2.5691,2.863 -8.7427,-1.8066 -6.5,-5.0336 0.0724,-0.1041 0.1597,-0.20994 0.25,-0.31071 l 2.1562,-2.4546 4.4062,-5.0025 2.1562,-2.4857 c 0.52899,-0.6155 1.1674,-0.89767 1.8438,-0.96321 z m 19.375,0 c 2.9309,-0.28404 6.5066,3.8599 4.4062,6.3075 l -2.1875,2.4857 -4.375,5.0025 -2.1562,2.4546 c -2.5691,2.863 -8.7739,-1.8066 -6.5312,-5.0336 0.0724,-0.1041 0.1597,-0.20994 0.25,-0.31071 l 2.1875,-2.4546 4.375,-5.0025 2.1875,-2.4857 c 0.52899,-0.6155 1.1674,-0.89767 1.8438,-0.96321 z m 19.344,0 c 2.9309,-0.28404 6.5066,3.8599 4.4062,6.3075 l -2.1562,2.4857 -4.375,5.0025 -2.1875,2.4546 c -2.5691,2.863 -8.7427,-1.8066 -6.5,-5.0336 0.0724,-0.1041 0.15969,-0.20994 0.25,-0.31071 l 2.1562,-2.4546 4.4062,-5.0025 2.1562,-2.4857 c 0.52899,-0.6155 1.1674,-0.89767 1.8438,-0.96321 z m 19.375,0 c 2.9309,-0.28404 6.5066,3.8599 4.4062,6.3075 l -2.1875,2.4857 -4.375,5.0025 -2.1562,2.4546 c -2.5691,2.863 -8.7739,-1.8066 -6.5312,-5.0336 0.0724,-0.1041 0.15969,-0.20994 0.25,-0.31071 l 2.1875,-2.4546 4.375,-5.0025 2.1875,-2.4857 c 0.52899,-0.6155 1.1674,-0.89767 1.8438,-0.96321 z m 19.344,0 c 2.9309,-0.28404 6.5066,3.8599 4.4062,6.3075 l -2.1562,2.4857 -4.375,5.0025 -2.1875,2.4546 c -2.5691,2.863 -8.7427,-1.8066 -6.5,-5.0336 0.0724,-0.1041 0.15969,-0.20994 0.25,-0.31071 l 2.1562,-2.4546 4.4062,-5.0025 2.1562,-2.4857 c 0.52899,-0.6155 1.1674,-0.89767 1.8438,-0.96321 z m 19.375,0 c 2.9309,-0.28404 6.5066,3.8599 4.4062,6.3075 l -2.1875,2.4857 -4.375,5.0025 -2.1562,2.4546 c -2.5691,2.863 -8.7739,-1.8066 -6.5312,-5.0336 0.0724,-0.1041 0.15969,-0.20994 0.25,-0.31071 l 2.1875,-2.4546 4.375,-5.0025 2.1875,-2.4857 c 0.52899,-0.6155 1.1674,-0.89767 1.8438,-0.96321 z m 19.344,0 c 2.9309,-0.28404 6.5066,3.8599 4.4062,6.3075 l -2.1562,2.4857 -4.375,5.0025 -2.1875,2.4546 c -2.5691,2.863 -8.7427,-1.8066 -6.5,-5.0336 0.0724,-0.1041 0.15969,-0.20994 0.25,-0.31071 l 2.1562,-2.4546 4.4062,-5.0025 2.1562,-2.4857 c 0.52899,-0.6155 1.1674,-0.89767 1.8438,-0.96321 z m 19.375,0 c 2.9309,-0.28404 6.5066,3.8599 4.4062,6.3075 l -2.1875,2.4857 -4.375,5.0025 -2.1562,2.4546 c -2.5691,2.863 -8.7739,-1.8066 -6.5312,-5.0336 0.0724,-0.1041 0.15969,-0.20994 0.25,-0.31071 l 2.1875,-2.4546 4.375,-5.0025 2.1875,-2.4857 c 0.52899,-0.6155 1.1674,-0.89767 1.8438,-0.96321 z m 19.344,0 c 2.9309,-0.28404 6.5066,3.8599 4.4062,6.3075 l -2.1562,2.4857 -4.375,5.0025 -2.1875,2.4546 c -2.5691,2.863 -8.7427,-1.8066 -6.5,-5.0336 0.0724,-0.1041 0.15975,-0.20994 0.25,-0.31071 l 2.1562,-2.4546 4.4062,-5.0025 2.1562,-2.4857 c 0.52899,-0.6155 1.1674,-0.89767 1.8438,-0.96321 z m 19.375,0 c 2.9309,-0.28404 6.5067,3.8599 4.4062,6.3075 l -2.1875,2.4857 -4.375,5.0025 -2.1562,2.4546 c -2.5691,2.863 -8.774,-1.8066 -6.5312,-5.0336 0.0724,-0.1041 0.1597,-0.20994 0.25,-0.31071 l 2.1875,-2.4546 4.375,-5.0025 2.1875,-2.4857 c 0.52899,-0.6155 1.1674,-0.89767 1.8438,-0.96321 z m 19.344,0 c 2.9309,-0.28404 6.5066,3.8599 4.4062,6.3075 l -2.1562,2.4857 -4.375,5.0025 -2.1875,2.4546 c -2.5691,2.863 -8.7427,-1.8066 -6.5,-5.0336 0.0724,-0.1041 0.1597,-0.20994 0.25,-0.31071 l 2.1562,-2.4546 4.4062,-5.0025 2.1562,-2.4857 c 0.52899,-0.6155 1.1674,-0.89767 1.8438,-0.96321 z m 19.375,0 c 2.9309,-0.28404 6.5066,3.8599 4.4062,6.3075 l -2.1875,2.4857 -4.375,5.0025 -2.1562,2.4546 c -2.5691,2.863 -8.774,-1.8066 -6.5312,-5.0336 0.0724,-0.1041 0.1597,-0.20994 0.25,-0.31071 l 2.1875,-2.4546 4.375,-5.0025 2.1562,-2.4857 c 0.52899,-0.6155 1.1986,-0.89767 1.875,-0.96321 z m 19.344,0 c 2.9309,-0.28404 6.5066,3.8599 4.4062,6.3075 l -2.1562,2.4857 -4.375,5.0025 -2.1875,2.4546 c -2.5691,2.863 -8.7427,-1.8066 -6.5,-5.0336 0.0724,-0.1041 0.1597,-0.20994 0.25,-0.31071 l 2.1562,-2.4546 4.375,-5.0025 2.1875,-2.4857 c 0.52899,-0.6155 1.1674,-0.89767 1.8438,-0.96321 z m 19.375,0 c 2.9309,-0.28404 6.5066,3.8599 4.4062,6.3075 l -2.1875,2.4857 -4.375,5.0025 -2.1562,2.4546 c -2.5691,2.863 -8.7739,-1.8066 -6.5312,-5.0336 0.0724,-0.1041 0.1597,-0.20994 0.25,-0.31071 l 2.1875,-2.4546 4.375,-5.0025 2.1562,-2.4857 c 0.52899,-0.6155 1.1986,-0.89767 1.875,-0.96321 z m 19.344,0 c 2.9309,-0.28404 6.5066,3.8599 4.4062,6.3075 l -2.1562,2.4857 -4.375,5.0025 -2.1875,2.4546 c -2.5691,2.863 -8.7427,-1.8066 -6.5,-5.0336 0.0724,-0.1041 0.15969,-0.20994 0.25,-0.31071 l 2.1562,-2.4546 4.375,-5.0025 2.1875,-2.4857 c 0.52899,-0.6155 1.1674,-0.89767 1.8438,-0.96321 z m 19.375,0 c 2.9309,-0.28404 6.5066,3.8599 4.4062,6.3075 l -2.1875,2.4857 -4.375,5.0025 -2.1562,2.4546 c -2.5691,2.863 -8.7739,-1.8066 -6.5312,-5.0336 0.0724,-0.1041 0.15969,-0.20994 0.25,-0.31071 l 2.1875,-2.4546 4.375,-5.0025 2.1562,-2.4857 c 0.52899,-0.6155 1.1986,-0.89767 1.875,-0.96321 z m 19.344,0 c 2.9309,-0.28404 6.5066,3.8599 4.4062,6.3075 l -2.1562,2.4857 -4.375,5.0025 -2.1875,2.4546 c -2.5691,2.863 -8.7427,-1.8066 -6.5,-5.0336 0.0724,-0.1041 0.15969,-0.20994 0.25,-0.31071 l 2.1562,-2.4546 4.375,-5.0025 2.1875,-2.4857 c 0.52899,-0.6155 1.1674,-0.89767 1.8438,-0.96321 z m 19.375,0 c 2.9309,-0.28404 6.5066,3.8599 4.4062,6.3075 l -2.1875,2.4857 -4.375,5.0025 -2.1562,2.4546 c -2.5691,2.863 -8.7739,-1.8066 -6.5312,-5.0336 0.0724,-0.1041 0.15969,-0.20994 0.25,-0.31071 l 2.1875,-2.4546 4.375,-5.0025 2.1562,-2.4857 c 0.52899,-0.6155 1.1986,-0.89767 1.875,-0.96321 z m 19.344,0 c 2.9309,-0.28404 6.5066,3.8599 4.4062,6.3075 l -2.1562,2.4857 -4.375,5.0025 -2.1875,2.4546 c -2.5691,2.863 -8.7427,-1.8066 -6.5,-5.0336 0.0724,-0.1041 0.15969,-0.20994 0.25,-0.31071 l 2.1562,-2.4546 4.375,-5.0025 2.1875,-2.4857 c 0.52899,-0.6155 1.1674,-0.89767 1.8438,-0.96321 z"
           inkscape:connector-curvature="0"
           style="fill:#999999;fill-rule:evenodd"
           id="path4409" />
      </g>
      <path
         d="m -1082.2,17.182 v 87.5 h 950 v -87.5 z m 118.66,10.375 c 2.9309,-0.28565 6.5067,3.8821 4.4062,6.3438 l -2.1875,2.5 -4.375,5.0312 -2.1562,2.4688 c -2.5691,2.8794 -8.774,-1.817 -6.5312,-5.0625 0.0724,-0.10469 0.15971,-0.21116 0.25,-0.3125 l 2.1875,-2.4688 4.375,-5.0312 2.1875,-2.5 c 0.529,-0.61902 1.1674,-0.90283 1.8438,-0.96875 z m 19.344,0 c 2.9309,-0.28565 6.5066,3.8821 4.4062,6.3438 l -2.1562,2.5 -4.375,5.0312 -2.1875,2.4688 c -2.5691,2.8794 -8.7427,-1.817 -6.5,-5.0625 0.0724,-0.10469 0.15969,-0.21116 0.25,-0.3125 l 2.1562,-2.4688 4.4062,-5.0312 2.1562,-2.5 c 0.529,-0.61902 1.1674,-0.90283 1.8438,-0.96875 z m 19.375,0 c 2.9309,-0.28565 6.5067,3.8821 4.4062,6.3438 l -2.1875,2.5 -4.375,5.0312 -2.1562,2.4688 c -2.5691,2.8794 -8.774,-1.817 -6.5312,-5.0625 0.0724,-0.10469 0.1597,-0.21116 0.25,-0.3125 l 2.1875,-2.4688 4.375,-5.0312 2.1875,-2.5 c 0.529,-0.61902 1.1674,-0.90283 1.8438,-0.96875 z m 19.344,0 c 2.9309,-0.28565 6.5067,3.8821 4.4062,6.3438 l -2.1562,2.5 -4.375,5.0312 -2.1875,2.4688 c -2.5691,2.8794 -8.7427,-1.817 -6.5,-5.0625 0.0724,-0.10469 0.1597,-0.21116 0.25,-0.3125 l 2.1562,-2.4688 4.4062,-5.0312 2.1562,-2.5 c 0.529,-0.61902 1.1674,-0.90283 1.8438,-0.96875 z m 19.375,0 c 2.9309,-0.28565 6.5066,3.8821 4.4062,6.3438 l -2.1875,2.5 -4.375,5.0312 -2.1562,2.4688 c -2.5691,2.8794 -8.774,-1.817 -6.5312,-5.0625 0.0724,-0.10469 0.1597,-0.21116 0.25,-0.3125 l 2.1875,-2.4688 4.375,-5.0312 2.1875,-2.5 c 0.529,-0.61902 1.1674,-0.90283 1.8438,-0.96875 z m 19.344,0 c 2.9309,-0.28565 6.5066,3.8821 4.4062,6.3438 l -2.1562,2.5 -4.375,5.0312 -2.1875,2.4688 c -2.5691,2.8794 -8.7427,-1.817 -6.5,-5.0625 0.0724,-0.10469 0.1597,-0.21116 0.25,-0.3125 l 2.1562,-2.4688 4.4062,-5.0312 2.1562,-2.5 c 0.529,-0.61902 1.1674,-0.90283 1.8438,-0.96875 z m 19.375,0 c 2.9309,-0.28565 6.5066,3.8821 4.4062,6.3438 l -2.1875,2.5 -4.375,5.0312 -2.1562,2.4688 c -2.5691,2.8794 -8.7739,-1.817 -6.5312,-5.0625 0.0724,-0.10469 0.1597,-0.21116 0.25,-0.3125 l 2.1875,-2.4688 4.375,-5.0312 2.1875,-2.5 c 0.529,-0.61902 1.1674,-0.90283 1.8438,-0.96875 z m 19.344,0 c 2.9309,-0.28565 6.5066,3.8821 4.4062,6.3438 l -2.1562,2.5 -4.375,5.0312 -2.1875,2.4688 c -2.5691,2.8794 -8.7427,-1.817 -6.5,-5.0625 0.0724,-0.10469 0.15969,-0.21116 0.25,-0.3125 l 2.1562,-2.4688 4.4062,-5.0312 2.1562,-2.5 c 0.529,-0.61902 1.1674,-0.90283 1.8438,-0.96875 z m 19.375,0 c 2.9309,-0.28565 6.5066,3.8821 4.4062,6.3438 l -2.1875,2.5 -4.375,5.0312 -2.1562,2.4688 c -2.5691,2.8794 -8.7739,-1.817 -6.5312,-5.0625 0.0724,-0.10469 0.15969,-0.21116 0.25,-0.3125 l 2.1875,-2.4688 4.375,-5.0312 2.1875,-2.5 c 0.529,-0.61902 1.1674,-0.90283 1.8438,-0.96875 z m 19.344,0 c 2.9309,-0.28565 6.5066,3.8821 4.4062,6.3438 l -2.1562,2.5 -4.375,5.0312 -2.1875,2.4688 c -2.5691,2.8794 -8.7427,-1.817 -6.5,-5.0625 0.0724,-0.10469 0.15969,-0.21116 0.25,-0.3125 l 2.1562,-2.4688 4.4062,-5.0312 2.1562,-2.5 c 0.529,-0.61902 1.1674,-0.90283 1.8438,-0.96875 z m 19.375,0 c 2.9309,-0.28565 6.5066,3.8821 4.4062,6.3438 l -2.1875,2.5 -4.375,5.0312 -2.1562,2.4688 c -2.5691,2.8794 -8.7739,-1.817 -6.5312,-5.0625 0.0724,-0.10469 0.15969,-0.21116 0.25,-0.3125 l 2.1875,-2.4688 4.375,-5.0312 2.1875,-2.5 c 0.529,-0.61902 1.1674,-0.90283 1.8438,-0.96875 z m 19.344,0 c 2.9309,-0.28565 6.5066,3.8821 4.4062,6.3438 l -2.1562,2.5 -4.375,5.0312 -2.1875,2.4688 c -2.5691,2.8794 -8.7427,-1.817 -6.5,-5.0625 0.0724,-0.10469 0.15969,-0.21116 0.25,-0.3125 l 2.1562,-2.4688 4.4062,-5.0312 2.1562,-2.5 c 0.529,-0.61902 1.1674,-0.90283 1.8438,-0.96875 z m 19.375,0 c 2.9309,-0.28565 6.5066,3.8821 4.4062,6.3438 l -2.1875,2.5 -4.375,5.0312 -2.1562,2.4688 c -2.5691,2.8794 -8.7739,-1.817 -6.5312,-5.0625 0.0724,-0.10469 0.15969,-0.21116 0.25,-0.3125 l 2.1875,-2.4688 4.375,-5.0312 2.1875,-2.5 c 0.529,-0.61902 1.1674,-0.90283 1.8438,-0.96875 z m 19.344,0 c 2.9309,-0.28565 6.5066,3.8821 4.4062,6.3438 l -2.1562,2.5 -4.375,5.0312 -2.1875,2.4688 c -2.5691,2.8794 -8.7427,-1.817 -6.5,-5.0625 0.0724,-0.10469 0.15976,-0.21116 0.25,-0.3125 l 2.1562,-2.4688 4.4062,-5.0312 2.1562,-2.5 c 0.52901,-0.61902 1.1674,-0.90283 1.8438,-0.96875 z m 19.375,0 c 2.9309,-0.28565 6.5067,3.8821 4.4062,6.3438 l -2.1875,2.5 -4.375,5.0312 -2.1562,2.4688 c -2.5691,2.8794 -8.774,-1.817 -6.5312,-5.0625 0.0724,-0.10469 0.15971,-0.21116 0.25,-0.3125 l 2.1875,-2.4688 4.375,-5.0312 2.1875,-2.5 c 0.52901,-0.61902 1.1674,-0.90283 1.8438,-0.96875 z m 19.344,0 c 2.9309,-0.28565 6.5067,3.8821 4.4062,6.3438 l -2.1562,2.5 -4.375,5.0312 -2.1875,2.4688 c -2.5691,2.8794 -8.7427,-1.817 -6.5,-5.0625 0.0724,-0.10469 0.15971,-0.21116 0.25,-0.3125 l 2.1562,-2.4688 4.4062,-5.0312 2.1562,-2.5 c 0.52901,-0.61902 1.1674,-0.90283 1.8438,-0.96875 z m 19.375,0 c 2.9309,-0.28565 6.5066,3.8821 4.4062,6.3438 l -2.1875,2.5 -4.375,5.0312 -2.1562,2.4688 c -2.5691,2.8794 -8.774,-1.817 -6.5312,-5.0625 0.0724,-0.10469 0.15971,-0.21116 0.25,-0.3125 l 2.1875,-2.4688 4.375,-5.0312 2.1562,-2.5 c 0.52901,-0.61902 1.1986,-0.90283 1.875,-0.96875 z m 19.344,0 c 2.9309,-0.28565 6.5066,3.8821 4.4062,6.3438 l -2.1562,2.5 -4.375,5.0312 -2.1875,2.4688 c -2.5691,2.8794 -8.7427,-1.817 -6.5,-5.0625 0.0724,-0.10469 0.1597,-0.21116 0.25,-0.3125 l 2.1562,-2.4688 4.375,-5.0312 2.1875,-2.5 c 0.52901,-0.61902 1.1674,-0.90283 1.8438,-0.96875 z m 19.375,0 c 2.9309,-0.28565 6.5066,3.8821 4.4062,6.3438 l -2.1875,2.5 -4.375,5.0312 -2.1562,2.4688 c -2.5691,2.8794 -8.7739,-1.817 -6.5312,-5.0625 0.0724,-0.10469 0.1597,-0.21116 0.25,-0.3125 l 2.1875,-2.4688 4.375,-5.0312 2.1562,-2.5 c 0.52901,-0.61902 1.1986,-0.90283 1.875,-0.96875 z m 19.344,0 c 2.9309,-0.28565 6.5066,3.8821 4.4062,6.3438 l -2.1562,2.5 -4.375,5.0312 -2.1875,2.4688 c -2.5691,2.8794 -8.7427,-1.817 -6.5,-5.0625 0.0724,-0.10469 0.15969,-0.21116 0.25,-0.3125 l 2.1562,-2.4688 4.375,-5.0312 2.1875,-2.5 c 0.52901,-0.61902 1.1674,-0.90283 1.8438,-0.96875 z m 19.375,0 c 2.9309,-0.28565 6.5066,3.8821 4.4062,6.3438 l -2.1875,2.5 -4.375,5.0312 -2.1562,2.4688 c -2.5691,2.8794 -8.7739,-1.817 -6.5312,-5.0625 0.0724,-0.10469 0.15969,-0.21116 0.25,-0.3125 l 2.1875,-2.4688 4.375,-5.0312 2.1562,-2.5 c 0.52901,-0.61902 1.1986,-0.90283 1.875,-0.96875 z m 19.344,0 c 2.9309,-0.28565 6.5066,3.8821 4.4062,6.3438 l -2.1562,2.5 -4.375,5.0312 -2.1875,2.4688 c -2.5691,2.8794 -8.7427,-1.817 -6.5,-5.0625 0.0724,-0.10469 0.15969,-0.21116 0.25,-0.3125 l 2.1562,-2.4688 4.375,-5.0312 2.1875,-2.5 c 0.52901,-0.61902 1.1674,-0.90283 1.8438,-0.96875 z m 19.375,0 c 2.9309,-0.28565 6.5066,3.8821 4.4062,6.3438 l -2.1875,2.5 -4.375,5.0312 -2.1562,2.4688 c -2.5691,2.8794 -8.7739,-1.817 -6.5312,-5.0625 0.0724,-0.10469 0.15969,-0.21116 0.25,-0.3125 l 2.1875,-2.4688 4.375,-5.0312 2.1562,-2.5 c 0.52901,-0.61902 1.1986,-0.90283 1.875,-0.96875 z m 19.344,0 c 2.9309,-0.28565 6.5066,3.8821 4.4062,6.3438 l -2.1562,2.5 -4.375,5.0312 -2.1875,2.4688 c -2.5691,2.8794 -8.7427,-1.817 -6.5,-5.0625 0.0724,-0.10469 0.15969,-0.21116 0.25,-0.3125 l 2.1562,-2.4688 4.375,-5.0312 2.1875,-2.5 c 0.52901,-0.61902 1.1674,-0.90283 1.8438,-0.96875 z m -445.25,24.75 c 2.9309,-0.28566 6.5067,3.9134 4.4062,6.375 l -2.1875,2.4688 -4.375,5.0312 -2.1562,2.5 c -2.5691,2.8794 -8.774,-1.8482 -6.5312,-5.0938 0.0724,-0.10469 0.15971,-0.17991 0.25,-0.28125 l 2.1875,-2.5 4.375,-5.0312 2.1875,-2.4688 c 0.529,-0.61903 1.1674,-0.93408 1.8438,-1 z m 19.344,0 c 2.9309,-0.28566 6.5066,3.9134 4.4062,6.375 l -2.1562,2.4688 -4.375,5.0312 -2.1875,2.5 c -2.5691,2.8794 -8.7427,-1.8482 -6.5,-5.0938 0.0724,-0.10469 0.15969,-0.17991 0.25,-0.28125 l 2.1562,-2.5 4.4062,-5.0312 2.1562,-2.4688 c 0.529,-0.61903 1.1674,-0.93408 1.8438,-1 z m 19.375,0 c 2.9309,-0.28566 6.5067,3.9134 4.4062,6.375 l -2.1875,2.4688 -4.375,5.0312 -2.1562,2.5 c -2.5691,2.8794 -8.774,-1.8482 -6.5312,-5.0938 0.0724,-0.10469 0.1597,-0.17991 0.25,-0.28125 l 2.1875,-2.5 4.375,-5.0312 2.1875,-2.4688 c 0.529,-0.61903 1.1674,-0.93408 1.8438,-1 z m 19.344,0 c 2.9309,-0.28566 6.5067,3.9134 4.4062,6.375 l -2.1562,2.4688 -4.375,5.0312 -2.1875,2.5 c -2.5691,2.8794 -8.7427,-1.8482 -6.5,-5.0938 0.0724,-0.10469 0.1597,-0.17991 0.25,-0.28125 l 2.1562,-2.5 4.4062,-5.0312 2.1562,-2.4688 c 0.529,-0.61903 1.1674,-0.93408 1.8438,-1 z m 19.375,0 c 2.9309,-0.28566 6.5066,3.9134 4.4062,6.375 l -2.1875,2.4688 -4.375,5.0312 -2.1562,2.5 c -2.5691,2.8794 -8.774,-1.8482 -6.5312,-5.0938 0.0724,-0.10469 0.1597,-0.17991 0.25,-0.28125 l 2.1875,-2.5 4.375,-5.0312 2.1875,-2.4688 c 0.529,-0.61903 1.1674,-0.93408 1.8438,-1 z m 19.344,0 c 2.9309,-0.28566 6.5066,3.9134 4.4062,6.375 l -2.1562,2.4688 -4.375,5.0312 -2.1875,2.5 c -2.5691,2.8794 -8.7427,-1.8482 -6.5,-5.0938 0.0724,-0.10469 0.1597,-0.17991 0.25,-0.28125 l 2.1562,-2.5 4.4062,-5.0312 2.1562,-2.4688 c 0.529,-0.61903 1.1674,-0.93408 1.8438,-1 z m 19.375,0 c 2.9309,-0.28566 6.5066,3.9134 4.4062,6.375 l -2.1875,2.4688 -4.375,5.0312 -2.1562,2.5 c -2.5691,2.8794 -8.7739,-1.8482 -6.5312,-5.0938 0.0724,-0.10469 0.1597,-0.17991 0.25,-0.28125 l 2.1875,-2.5 4.375,-5.0312 2.1875,-2.4688 c 0.529,-0.61903 1.1674,-0.93408 1.8438,-1 z m 19.344,0 c 2.9309,-0.28566 6.5066,3.9134 4.4062,6.375 l -2.1562,2.4688 -4.375,5.0312 -2.1875,2.5 c -2.5691,2.8794 -8.7427,-1.8482 -6.5,-5.0938 0.0724,-0.10469 0.15969,-0.17991 0.25,-0.28125 l 2.1562,-2.5 4.4062,-5.0312 2.1562,-2.4688 c 0.529,-0.61903 1.1674,-0.93408 1.8438,-1 z m 19.375,0 c 2.9309,-0.28566 6.5066,3.9134 4.4062,6.375 l -2.1875,2.4688 -4.375,5.0312 -2.1562,2.5 c -2.5691,2.8794 -8.7739,-1.8482 -6.5312,-5.0938 0.0724,-0.10469 0.15969,-0.17991 0.25,-0.28125 l 2.1875,-2.5 4.375,-5.0312 2.1875,-2.4688 c 0.529,-0.61903 1.1674,-0.93408 1.8438,-1 z m 19.344,0 c 2.9309,-0.28566 6.5066,3.9134 4.4062,6.375 l -2.1562,2.4688 -4.375,5.0312 -2.1875,2.5 c -2.5691,2.8794 -8.7427,-1.8482 -6.5,-5.0938 0.0724,-0.10469 0.15969,-0.17991 0.25,-0.28125 l 2.1562,-2.5 4.4062,-5.0312 2.1562,-2.4688 c 0.529,-0.61903 1.1674,-0.93408 1.8438,-1 z m 19.375,0 c 2.9309,-0.28566 6.5066,3.9134 4.4062,6.375 l -2.1875,2.4688 -4.375,5.0312 -2.1562,2.5 c -2.5691,2.8794 -8.7739,-1.8482 -6.5312,-5.0938 0.0724,-0.10469 0.15969,-0.17991 0.25,-0.28125 l 2.1875,-2.5 4.375,-5.0312 2.1875,-2.4688 c 0.529,-0.61903 1.1674,-0.93408 1.8438,-1 z m 19.344,0 c 2.9309,-0.28566 6.5066,3.9134 4.4062,6.375 l -2.1562,2.4688 -4.375,5.0312 -2.1875,2.5 c -2.5691,2.8794 -8.7427,-1.8482 -6.5,-5.0938 0.0724,-0.10469 0.15969,-0.17991 0.25,-0.28125 l 2.1562,-2.5 4.4062,-5.0312 2.1562,-2.4688 c 0.529,-0.61903 1.1674,-0.93408 1.8438,-1 z m 19.375,0 c 2.9309,-0.28566 6.5066,3.9134 4.4062,6.375 l -2.1875,2.4688 -4.375,5.0312 -2.1562,2.5 c -2.5691,2.8794 -8.7739,-1.8482 -6.5312,-5.0938 0.0724,-0.10469 0.15969,-0.17991 0.25,-0.28125 l 2.1875,-2.5 4.375,-5.0312 2.1875,-2.4688 c 0.529,-0.61903 1.1674,-0.93408 1.8438,-1 z m 19.344,0 c 2.9309,-0.28566 6.5066,3.9134 4.4062,6.375 l -2.1562,2.4688 -4.375,5.0312 -2.1875,2.5 c -2.5691,2.8794 -8.7427,-1.8482 -6.5,-5.0938 0.0724,-0.10469 0.15976,-0.17991 0.25,-0.28125 l 2.1562,-2.5 4.4062,-5.0312 2.1562,-2.4688 c 0.52901,-0.61903 1.1674,-0.93408 1.8438,-1 z m 19.375,0 c 2.9309,-0.28566 6.5067,3.9134 4.4062,6.375 l -2.1875,2.4688 -4.375,5.0312 -2.1562,2.5 c -2.5691,2.8794 -8.774,-1.8482 -6.5312,-5.0938 0.0724,-0.10469 0.15971,-0.17991 0.25,-0.28125 l 2.1875,-2.5 4.375,-5.0312 2.1875,-2.4688 c 0.52901,-0.61903 1.1674,-0.93408 1.8438,-1 z m 19.344,0 c 2.9309,-0.28566 6.5067,3.9134 4.4062,6.375 l -2.1562,2.4688 -4.375,5.0312 -2.1875,2.5 c -2.5691,2.8794 -8.7427,-1.8482 -6.5,-5.0938 0.0724,-0.10469 0.15971,-0.17991 0.25,-0.28125 l 2.1562,-2.5 4.4062,-5.0312 2.1562,-2.4688 c 0.52901,-0.61903 1.1674,-0.93408 1.8438,-1 z m 19.375,0 c 2.9309,-0.28566 6.5066,3.9134 4.4062,6.375 l -2.1875,2.4688 -4.375,5.0312 -2.1562,2.5 c -2.5691,2.8794 -8.774,-1.8482 -6.5312,-5.0938 0.0724,-0.10469 0.15971,-0.17991 0.25,-0.28125 l 2.1875,-2.5 4.375,-5.0312 2.1562,-2.4688 c 0.52901,-0.61903 1.1986,-0.93408 1.875,-1 z m 19.344,0 c 2.9309,-0.28566 6.5066,3.9134 4.4062,6.375 l -2.1562,2.4688 -4.375,5.0312 -2.1875,2.5 c -2.5691,2.8794 -8.7427,-1.8482 -6.5,-5.0938 0.0724,-0.10469 0.1597,-0.17991 0.25,-0.28125 l 2.1562,-2.5 4.375,-5.0312 2.1875,-2.4688 c 0.52901,-0.61903 1.1674,-0.93408 1.8438,-1 z m 19.375,0 c 2.9309,-0.28566 6.5066,3.9134 4.4062,6.375 l -2.1875,2.4688 -4.375,5.0312 -2.1562,2.5 c -2.5691,2.8794 -8.7739,-1.8482 -6.5312,-5.0938 0.0724,-0.10469 0.1597,-0.17991 0.25,-0.28125 l 2.1875,-2.5 4.375,-5.0312 2.1562,-2.4688 c 0.52901,-0.61903 1.1986,-0.93408 1.875,-1 z m 19.344,0 c 2.9309,-0.28566 6.5066,3.9134 4.4062,6.375 l -2.1562,2.4688 -4.375,5.0312 -2.1875,2.5 c -2.5691,2.8794 -8.7427,-1.8482 -6.5,-5.0938 0.0724,-0.10469 0.15969,-0.17991 0.25,-0.28125 l 2.1562,-2.5 4.375,-5.0312 2.1875,-2.4688 c 0.52901,-0.61903 1.1674,-0.93408 1.8438,-1 z m 19.375,0 c 2.9309,-0.28566 6.5066,3.9134 4.4062,6.375 l -2.1875,2.4688 -4.375,5.0312 -2.1562,2.5 c -2.5691,2.8794 -8.7739,-1.8482 -6.5312,-5.0938 0.0724,-0.10469 0.15969,-0.17991 0.25,-0.28125 l 2.1875,-2.5 4.375,-5.0312 2.1562,-2.4688 c 0.52901,-0.61903 1.1986,-0.93408 1.875,-1 z m 19.344,0 c 2.9309,-0.28566 6.5066,3.9134 4.4062,6.375 l -2.1562,2.4688 -4.375,5.0312 -2.1875,2.5 c -2.5691,2.8794 -8.7427,-1.8482 -6.5,-5.0938 0.0724,-0.10469 0.15969,-0.17991 0.25,-0.28125 l 2.1562,-2.5 4.375,-5.0312 2.1875,-2.4688 c 0.52901,-0.61903 1.1674,-0.93408 1.8438,-1 z m 19.375,0 c 2.9309,-0.28566 6.5066,3.9134 4.4062,6.375 l -2.1875,2.4688 -4.375,5.0312 -2.1562,2.5 c -2.5691,2.8794 -8.7739,-1.8482 -6.5312,-5.0938 0.0724,-0.10469 0.15969,-0.17991 0.25,-0.28125 l 2.1875,-2.5 4.375,-5.0312 2.1562,-2.4688 c 0.52901,-0.61903 1.1986,-0.93408 1.875,-1 z m 19.344,0 c 2.9309,-0.28566 6.5066,3.9134 4.4062,6.375 l -2.1562,2.4688 -4.375,5.0312 -2.1875,2.5 c -2.5691,2.8794 -8.7427,-1.8482 -6.5,-5.0938 0.0724,-0.10469 0.15969,-0.17991 0.25,-0.28125 l 2.1562,-2.5 4.375,-5.0312 2.1875,-2.4688 c 0.52901,-0.61903 1.1674,-0.93408 1.8438,-1 z m -445.25,24.781 c 2.9309,-0.28566 6.5067,3.8821 4.4062,6.3438 l -2.1875,2.5 -4.375,5.0312 -2.1562,2.4688 c -2.5691,2.8794 -8.774,-1.817 -6.5312,-5.0625 0.0724,-0.10469 0.15971,-0.21115 0.25,-0.3125 l 2.1875,-2.4688 4.375,-5.0312 2.1875,-2.5 c 0.529,-0.61903 1.1674,-0.90283 1.8438,-0.96875 z m 19.344,0 c 2.9309,-0.28566 6.5066,3.8821 4.4062,6.3438 l -2.1562,2.5 -4.375,5.0312 -2.1875,2.4688 c -2.5691,2.8794 -8.7427,-1.817 -6.5,-5.0625 0.0724,-0.10469 0.15969,-0.21115 0.25,-0.3125 l 2.1562,-2.4688 4.4062,-5.0312 2.1562,-2.5 c 0.529,-0.61903 1.1674,-0.90283 1.8438,-0.96875 z m 19.375,0 c 2.9309,-0.28566 6.5067,3.8821 4.4062,6.3438 l -2.1875,2.5 -4.375,5.0312 -2.1562,2.4688 c -2.5691,2.8794 -8.774,-1.817 -6.5312,-5.0625 0.0724,-0.10469 0.1597,-0.21115 0.25,-0.3125 l 2.1875,-2.4688 4.375,-5.0312 2.1875,-2.5 c 0.529,-0.61903 1.1674,-0.90283 1.8438,-0.96875 z m 19.344,0 c 2.9309,-0.28566 6.5067,3.8821 4.4062,6.3438 l -2.1562,2.5 -4.375,5.0312 -2.1875,2.4688 c -2.5691,2.8794 -8.7427,-1.817 -6.5,-5.0625 0.0724,-0.10469 0.1597,-0.21115 0.25,-0.3125 l 2.1562,-2.4688 4.4062,-5.0312 2.1562,-2.5 c 0.529,-0.61903 1.1674,-0.90283 1.8438,-0.96875 z m 19.375,0 c 2.9309,-0.28566 6.5066,3.8821 4.4062,6.3438 l -2.1875,2.5 -4.375,5.0312 -2.1562,2.4688 c -2.5691,2.8794 -8.774,-1.817 -6.5312,-5.0625 0.0724,-0.10469 0.1597,-0.21115 0.25,-0.3125 l 2.1875,-2.4688 4.375,-5.0312 2.1875,-2.5 c 0.529,-0.61903 1.1674,-0.90283 1.8438,-0.96875 z m 19.344,0 c 2.9309,-0.28566 6.5066,3.8821 4.4062,6.3438 l -2.1562,2.5 -4.375,5.0312 -2.1875,2.4688 c -2.5691,2.8794 -8.7427,-1.817 -6.5,-5.0625 0.0724,-0.10469 0.1597,-0.21115 0.25,-0.3125 l 2.1562,-2.4688 4.4062,-5.0312 2.1562,-2.5 c 0.529,-0.61903 1.1674,-0.90283 1.8438,-0.96875 z m 19.375,0 c 2.9309,-0.28566 6.5066,3.8821 4.4062,6.3438 l -2.1875,2.5 -4.375,5.0312 -2.1562,2.4688 c -2.5691,2.8794 -8.7739,-1.817 -6.5312,-5.0625 0.0724,-0.10469 0.1597,-0.21115 0.25,-0.3125 l 2.1875,-2.4688 4.375,-5.0312 2.1875,-2.5 c 0.529,-0.61903 1.1674,-0.90283 1.8438,-0.96875 z m 19.344,0 c 2.9309,-0.28566 6.5066,3.8821 4.4062,6.3438 l -2.1562,2.5 -4.375,5.0312 -2.1875,2.4688 c -2.5691,2.8794 -8.7427,-1.817 -6.5,-5.0625 0.0724,-0.10469 0.15969,-0.21115 0.25,-0.3125 l 2.1562,-2.4688 4.4062,-5.0312 2.1562,-2.5 c 0.529,-0.61903 1.1674,-0.90283 1.8438,-0.96875 z m 19.375,0 c 2.9309,-0.28566 6.5066,3.8821 4.4062,6.3438 l -2.1875,2.5 -4.375,5.0312 -2.1562,2.4688 c -2.5691,2.8794 -8.7739,-1.817 -6.5312,-5.0625 0.0724,-0.10469 0.15969,-0.21115 0.25,-0.3125 l 2.1875,-2.4688 4.375,-5.0312 2.1875,-2.5 c 0.529,-0.61903 1.1674,-0.90283 1.8438,-0.96875 z m 19.344,0 c 2.9309,-0.28566 6.5066,3.8821 4.4062,6.3438 l -2.1562,2.5 -4.375,5.0312 -2.1875,2.4688 c -2.5691,2.8794 -8.7427,-1.817 -6.5,-5.0625 0.0724,-0.10469 0.15969,-0.21115 0.25,-0.3125 l 2.1562,-2.4688 4.4062,-5.0312 2.1562,-2.5 c 0.529,-0.61903 1.1674,-0.90283 1.8438,-0.96875 z m 19.375,0 c 2.9309,-0.28566 6.5066,3.8821 4.4062,6.3438 l -2.1875,2.5 -4.375,5.0312 -2.1562,2.4688 c -2.5691,2.8794 -8.7739,-1.817 -6.5312,-5.0625 0.0724,-0.10469 0.15969,-0.21115 0.25,-0.3125 l 2.1875,-2.4688 4.375,-5.0312 2.1875,-2.5 c 0.529,-0.61903 1.1674,-0.90283 1.8438,-0.96875 z m 19.344,0 c 2.9309,-0.28566 6.5066,3.8821 4.4062,6.3438 l -2.1562,2.5 -4.375,5.0312 -2.1875,2.4688 c -2.5691,2.8794 -8.7427,-1.817 -6.5,-5.0625 0.0724,-0.10469 0.15969,-0.21115 0.25,-0.3125 l 2.1562,-2.4688 4.4062,-5.0312 2.1562,-2.5 c 0.529,-0.61903 1.1674,-0.90283 1.8438,-0.96875 z m 19.375,0 c 2.9309,-0.28566 6.5066,3.8821 4.4062,6.3438 l -2.1875,2.5 -4.375,5.0312 -2.1562,2.4688 c -2.5691,2.8794 -8.7739,-1.817 -6.5312,-5.0625 0.0724,-0.10469 0.15969,-0.21115 0.25,-0.3125 l 2.1875,-2.4688 4.375,-5.0312 2.1875,-2.5 c 0.529,-0.61903 1.1674,-0.90283 1.8438,-0.96875 z m 19.344,0 c 2.9309,-0.28566 6.5066,3.8821 4.4062,6.3438 l -2.1562,2.5 -4.375,5.0312 -2.1875,2.4688 c -2.5691,2.8794 -8.7427,-1.817 -6.5,-5.0625 0.0724,-0.10469 0.15976,-0.21115 0.25,-0.3125 l 2.1562,-2.4688 4.4062,-5.0312 2.1562,-2.5 c 0.52901,-0.61903 1.1674,-0.90283 1.8438,-0.96875 z m 19.375,0 c 2.9309,-0.28566 6.5067,3.8821 4.4062,6.3438 l -2.1875,2.5 -4.375,5.0312 -2.1562,2.4688 c -2.5691,2.8794 -8.774,-1.817 -6.5312,-5.0625 0.0724,-0.10469 0.15971,-0.21115 0.25,-0.3125 l 2.1875,-2.4688 4.375,-5.0312 2.1875,-2.5 c 0.52901,-0.61903 1.1674,-0.90283 1.8438,-0.96875 z m 19.344,0 c 2.9309,-0.28566 6.5067,3.8821 4.4062,6.3438 l -2.1562,2.5 -4.375,5.0312 -2.1875,2.4688 c -2.5691,2.8794 -8.7427,-1.817 -6.5,-5.0625 0.0724,-0.10469 0.15971,-0.21115 0.25,-0.3125 l 2.1562,-2.4688 4.4062,-5.0312 2.1562,-2.5 c 0.52901,-0.61903 1.1674,-0.90283 1.8438,-0.96875 z m 19.375,0 c 2.9309,-0.28566 6.5066,3.8821 4.4062,6.3438 l -2.1875,2.5 -4.375,5.0312 -2.1562,2.4688 c -2.5691,2.8794 -8.774,-1.817 -6.5312,-5.0625 0.0724,-0.10469 0.15971,-0.21115 0.25,-0.3125 l 2.1875,-2.4688 4.375,-5.0312 2.1562,-2.5 c 0.52901,-0.61903 1.1986,-0.90283 1.875,-0.96875 z m 19.344,0 c 2.9309,-0.28566 6.5066,3.8821 4.4062,6.3438 l -2.1562,2.5 -4.375,5.0312 -2.1875,2.4688 c -2.5691,2.8794 -8.7427,-1.817 -6.5,-5.0625 0.0724,-0.10469 0.1597,-0.21115 0.25,-0.3125 l 2.1562,-2.4688 4.375,-5.0312 2.1875,-2.5 c 0.52901,-0.61903 1.1674,-0.90283 1.8438,-0.96875 z m 19.375,0 c 2.9309,-0.28566 6.5066,3.8821 4.4062,6.3438 l -2.1875,2.5 -4.375,5.0312 -2.1562,2.4688 c -2.5691,2.8794 -8.7739,-1.817 -6.5312,-5.0625 0.0724,-0.10469 0.1597,-0.21115 0.25,-0.3125 l 2.1875,-2.4688 4.375,-5.0312 2.1562,-2.5 c 0.52901,-0.61903 1.1986,-0.90283 1.875,-0.96875 z m 19.344,0 c 2.9309,-0.28566 6.5066,3.8821 4.4062,6.3438 l -2.1562,2.5 -4.375,5.0312 -2.1875,2.4688 c -2.5691,2.8794 -8.7427,-1.817 -6.5,-5.0625 0.0724,-0.10469 0.15969,-0.21115 0.25,-0.3125 l 2.1562,-2.4688 4.375,-5.0312 2.1875,-2.5 c 0.52901,-0.61903 1.1674,-0.90283 1.8438,-0.96875 z m 19.375,0 c 2.9309,-0.28566 6.5066,3.8821 4.4062,6.3438 l -2.1875,2.5 -4.375,5.0312 -2.1562,2.4688 c -2.5691,2.8794 -8.7739,-1.817 -6.5312,-5.0625 0.0724,-0.10469 0.15969,-0.21115 0.25,-0.3125 l 2.1875,-2.4688 4.375,-5.0312 2.1562,-2.5 c 0.52901,-0.61903 1.1986,-0.90283 1.875,-0.96875 z m 19.344,0 c 2.9309,-0.28566 6.5066,3.8821 4.4062,6.3438 l -2.1562,2.5 -4.375,5.0312 -2.1875,2.4688 c -2.5691,2.8794 -8.7427,-1.817 -6.5,-5.0625 0.0724,-0.10469 0.15969,-0.21115 0.25,-0.3125 l 2.1562,-2.4688 4.375,-5.0312 2.1875,-2.5 c 0.52901,-0.61903 1.1674,-0.90283 1.8438,-0.96875 z m 19.375,0 c 2.9309,-0.28566 6.5066,3.8821 4.4062,6.3438 l -2.1875,2.5 -4.375,5.0312 -2.1562,2.4688 c -2.5691,2.8794 -8.7739,-1.817 -6.5312,-5.0625 0.0724,-0.10469 0.15969,-0.21115 0.25,-0.3125 l 2.1875,-2.4688 4.375,-5.0312 2.1562,-2.5 c 0.52901,-0.61903 1.1986,-0.90283 1.875,-0.96875 z m 19.344,0 c 2.9309,-0.28566 6.5066,3.8821 4.4062,6.3438 l -2.1562,2.5 -4.375,5.0312 -2.1875,2.4688 c -2.5691,2.8794 -8.7427,-1.817 -6.5,-5.0625 0.0724,-0.10469 0.15969,-0.21115 0.25,-0.3125 l 2.1562,-2.4688 4.375,-5.0312 2.1875,-2.5 c 0.52901,-0.61903 1.1674,-0.90283 1.8438,-0.96875 z"
         inkscape:connector-curvature="0"
         style="fill:url(#linearGradient6215);fill-rule:evenodd"
         id="path4993" />
      <g
         transform="translate(-0.0087862,0.63837)"
         id="g5563">
        <rect
           x="-491.48001"
           y="28.975"
           width="242.17"
           height="25.714001"
           ry="7.9016997e-17"
           rx="7.9016997e-17"
           style="fill:url(#linearGradient6237);fill-rule:evenodd;stroke:#000000;stroke-width:1.70000005;stroke-linecap:round"
           id="rect5523" />
        <rect
           x="-371.20001"
           y="38.299999"
           width="17.976"
           height="7.0644999"
           ry="7.9016997e-17"
           rx="7.9016997e-17"
           style="fill:url(#linearGradient6239);fill-rule:evenodd;stroke:#000000;stroke-width:1.70000005;stroke-linecap:round"
           id="rect5533" />
        <circle
           r="2.111347"
           cy="-7.725965"
           cx="-388.18344"
           transform="matrix(0.73746,0,0,0.73746,-53.094,50.355)"
           style="fill:#000000;fill-rule:evenodd"
           id="path5561" />
      </g>
      <g
         transform="translate(-31.2828,-63.194)"
         id="g5874">
        <g
           id="g5827">
          <g
             id="g5804">
            <g
               id="g5743">
              <path
                 d="m -452.94,145.89 h -6.2185 v -10e-6 -24.996 h 6.2185"
                 inkscape:connector-curvature="0"
                 style="fill:url(#linearGradient6241);fill-rule:evenodd;stroke:#000000;stroke-width:1.70000005;stroke-linecap:round"
                 id="path5721" />
              <path
                 d="m -286.47,145.89 h 6.2185 v -10e-6 -24.996 h -6.2185"
                 inkscape:connector-curvature="0"
                 style="fill:url(#linearGradient6243);fill-rule:evenodd;stroke:#000000;stroke-width:1.70000005;stroke-linecap:round"
                 id="path5739" />
              <path
                 d="m -459.16,126.58 v -5.6872 h 178.91 v 5.6872"
                 inkscape:connector-curvature="0"
                 style="fill:url(#linearGradient6245);fill-rule:evenodd;stroke:#000000;stroke-width:1.70000005;stroke-linecap:round"
                 id="path5662" />
              <path
                 d="m -280.25,138.68 v 7.2176 10e-6 l -178.91,-10e-6 v 10e-6 -7.2176"
                 inkscape:connector-curvature="0"
                 style="fill:url(#linearGradient6247);fill-rule:evenodd;stroke:#000000;stroke-width:1.70000005;stroke-linecap:round"
                 id="rect5684" />
            </g>
            <path
               d="m -341.25,138.59 v 7.8065 -1e-5 l -56.913,1e-5 v -1e-5 -7.8065"
               inkscape:connector-curvature="0"
               style="fill:url(#linearGradient6249);fill-rule:evenodd;stroke:#000000;stroke-width:0.69999999;stroke-linecap:round"
               id="rect5769" />
            <rect
               x="-452.60001"
               y="126.85"
               width="165.74001"
               height="11.412"
               ry="7.9016997e-17"
               rx="7.9016997e-17"
               style="fill:url(#linearGradient6251);fill-rule:evenodd;stroke:#000000;stroke-width:0.69999999;stroke-linecap:round"
               id="rect5749" />
          </g>
          <rect
             x="-419.69"
             y="140.2"
             width="7.3589001"
             height="4.3174"
             ry="7.9016997e-17"
             rx="7.9016997e-17"
             style="fill:url(#radialGradient6253);fill-rule:evenodd;stroke:#000000;stroke-width:0.2;stroke-linecap:round"
             id="rect5813" />
        </g>
        <g
           transform="translate(0.79381,8.0391)"
           id="g5866">
          <rect
             x="-334.87"
             y="114.2"
             width="18.549999"
             height="3.7714"
             ry="7.9016997e-17"
             rx="7.9016997e-17"
             style="fill:url(#linearGradient6255);fill-rule:evenodd"
             id="rect5838" />
          <rect
             x="-331.16"
             y="114.35"
             width="11.123"
             height="3.4870999"
             ry="7.9016997e-17"
             rx="7.9016997e-17"
             style="fill:url(#linearGradient6257);fill-rule:evenodd;stroke:#000000;stroke-width:0.2;stroke-linecap:round"
             id="rect5852" />
        </g>
      </g>
      <g
         style="fill:#ff6600"
         transform="translate(67.991199,586.94)"
         id="g6051">
        <rect
           x="-243.3"
           y="-560.02002"
           width="17.707001"
           height="18.379"
           ry="6.9000001"
           rx="6.5"
           style="fill:#ff6600;fill-rule:evenodd;stroke:#cccccc;stroke-width:0.5;stroke-linecap:round"
           id="rect6009" />
        <path
           d="m -231.13,-550.83 c 0,1.83 -1.4853,3.3153 -3.3153,3.3153 -1.83,0 -3.3153,-1.4853 -3.3153,-3.3153 0,-1.83 1.4852,-3.3153 3.3153,-3.3153 1.83,0 3.3153,1.4853 3.3153,3.3153 z m -3.3153,-4.8359 v 2.9249"
           inkscape:connector-curvature="0"
           style="fill:#ff6600;stroke:#cccccc;stroke-linecap:round"
           id="path6048" />
      </g>
      <g
         style="fill:#ff6600"
         transform="translate(91.530199,578.1959)"
         id="g6067">
        <rect
           x="-266.82999"
           y="-523.40997"
           width="17.707001"
           height="18.379"
           ry="6.9000001"
           rx="6.5"
           style="fill:#ff6600;fill-rule:evenodd;stroke:#cccccc;stroke-width:0.5;stroke-linecap:round"
           id="rect6032" />
        <path
           d="m -260.4,-512.35 3.0382,-4.7103 m -1.2307,5.6937 3.0382,-4.7103"
           inkscape:connector-curvature="0"
           style="fill:#ff6600;stroke:#cccccc"
           id="path6064" />
      </g>
      <g
         id="g6136"
         transform="translate(67.9912,580.65)">
        <circle
           id="path6119"
           style="fill:url(#radialGradient976);fill-rule:evenodd;stroke:#000000;stroke-width:5.50540018;stroke-linecap:round"
           transform="matrix(0.29062,0,0,0.29062,-6.2614,-278.14)"
           cx="-784.5304"
           cy="-759.80725"
           r="13.806598" />
        <g
           id="g6131">
          <circle
             id="path6087"
             style="fill:url(#radialGradient6265);fill-rule:evenodd;stroke:#000000;stroke-width:5.50540018;stroke-linecap:round"
             transform="matrix(0.29062,0,0,0.29062,18.564,-328.91)"
             cx="-784.5304"
             cy="-759.80725"
             r="13.806598" />
          <circle
             id="path6121"
             style="fill:url(#radialGradient978);fill-rule:evenodd;stroke:#000000;stroke-width:5.50559998;stroke-linecap:round"
             transform="matrix(0.29061,0,0,0.29061,18.557,-300.91)"
             cx="-784.5304"
             cy="-759.80725"
             r="13.806598" />
          <circle
             id="path6127"
             style="fill:url(#radialGradient6263);fill-rule:evenodd;stroke:#000000;stroke-width:5.50540018;stroke-linecap:round"
             transform="matrix(0.29062,0,0,0.29062,18.564,-314.91)"
             cx="-784.5304"
             cy="-759.80725"
             r="13.806598" />
        </g>
      </g>
    </g>
  </g>
  <metadata
     id="metadata158">
    <rdf:RDF>
      <cc:Work>
        <dc:format>image/svg+xml</dc:format>
        <dc:type
           rdf:resource="http://purl.org/dc/dcmitype/StillImage" />
        <cc:license
           rdf:resource="http://creativecommons.org/licenses/publicdomain/" />
        <dc:publisher>
          <cc:Agent
             rdf:about="http://openclipart.org/">
            <dc:title>Openclipart</dc:title>
          </cc:Agent>
        </dc:publisher>
        <dc:title>Black 1U mini-server</dc:title>
        <dc:date>2011-08-01T09:44:57</dc:date>
        <dc:description />
        <dc:source>https://openclipart.org/detail/153037/black-1u-mini-server-by-rob-fenwitch</dc:source>
        <dc:creator>
          <cc:Agent>
            <dc:title>Rob Fenwitch</dc:title>
          </cc:Agent>
        </dc:creator>
        <dc:subject>
          <rdf:Bag>
            <rdf:li>1U</rdf:li>
            <rdf:li>PC</rdf:li>
            <rdf:li>computer</rdf:li>
            <rdf:li>mounted</rdf:li>
            <rdf:li>network</rdf:li>
            <rdf:li>rack</rdf:li>
            <rdf:li>rack-mounted</rdf:li>
            <rdf:li>server</rdf:li>
          </rdf:Bag>
        </dc:subject>
      </cc:Work>
      <cc:License
         rdf:about="http://creativecommons.org/licenses/publicdomain/">
        <cc:permits
           rdf:resource="http://creativecommons.org/ns#Reproduction" />
        <cc:permits
           rdf:resource="http://creativecommons.org/ns#Distribution" />
        <cc:permits
           rdf:resource="http://creativecommons.org/ns#DerivativeWorks" />
      </cc:License>
    </rdf:RDF>
  </metadata>
</svg>
