<?xml version="1.0" encoding="UTF-8" standalone="no"?>
<!-- Generator: Adobe Illustrator 19.0.0, SVG Export Plug-In . SVG Version: 6.00 Build 0)  -->

<svg
   xmlns:dc="http://purl.org/dc/elements/1.1/"
   xmlns:cc="http://creativecommons.org/ns#"
   xmlns:rdf="http://www.w3.org/1999/02/22-rdf-syntax-ns#"
   xmlns:svg="http://www.w3.org/2000/svg"
   xmlns="http://www.w3.org/2000/svg"
   xmlns:sodipodi="http://sodipodi.sourceforge.net/DTD/sodipodi-0.dtd"
   xmlns:inkscape="http://www.inkscape.org/namespaces/inkscape"
   version="1.1"
   id="Layer_1"
   x="0px"
   y="0px"
   viewBox="0 0 222.80001 512.02504"
   xml:space="preserve"
   sodipodi:docname="tower_1.svg"
   width="222.8"
   height="512.02502"
   inkscape:version="0.92.3 (2405546, 2018-03-11)"><metadata
   id="metadata87"><rdf:RDF><cc:Work
       rdf:about=""><dc:format>image/svg+xml</dc:format><dc:type
         rdf:resource="http://purl.org/dc/dcmitype/StillImage" /><dc:title /></cc:Work></rdf:RDF></metadata><defs
   id="defs85" /><sodipodi:namedview
   pagecolor="#ffffff"
   bordercolor="#666666"
   borderopacity="1"
   objecttolerance="10"
   gridtolerance="10"
   guidetolerance="10"
   inkscape:pageopacity="0"
   inkscape:pageshadow="2"
   inkscape:window-width="1920"
   inkscape:window-height="1003"
   id="namedview83"
   showgrid="false"
   inkscape:zoom="5.2146684"
   inkscape:cx="108.40257"
   inkscape:cy="430.0833"
   inkscape:window-x="0"
   inkscape:window-y="0"
   inkscape:window-maximized="1"
   inkscape:current-layer="Layer_1" />






































<g
   id="g894"><path
     id="path2"
     d="M 214.936,485.79301 H 7.864 c -4.328,0 -7.864,-3.536 -7.864,-7.864 V 7.8650132 c 0,-4.328 3.536,-7.86400002 7.864,-7.86400002 h 207.072 c 4.328,0 7.864,3.53600002 7.864,7.86400002 V 477.92901 c 0,4.32 -3.536,7.864 -7.864,7.864 z"
     inkscape:connector-curvature="0" /><path
     id="path4"
     d="M 11.144,0.00101318 V 148.09701 c 0,11.536 9.44,20.968 20.968,20.968 h 158.584 c 11.536,0 20.968,-9.44 20.968,-20.968 V 0.00101318 Z"
     style="fill:#333333"
     inkscape:connector-curvature="0" /><rect
     id="rect6"
     height="5.2399998"
     width="200.56"
     y="74.265015"
     x="11.143996" /><rect
     id="rect8"
     height="5.2399998"
     width="200.56"
     y="10.049013"
     x="11.143996" /><rect
     id="rect10"
     height="5.2399998"
     width="19.743999"
     style="fill:#5b5c5f"
     y="125.37701"
     x="74.031998" /><rect
     id="rect12"
     height="5.2399998"
     width="19.743999"
     style="fill:#00ff00"
     y="125.37701"
     x="46.832001" /><rect
     id="rect14"
     height="29.704"
     width="200.08"
     y="482.32101"
     x="11.36" /><rect
     id="rect16"
     height="5.2399998"
     width="19.743999"
     style="fill:#00ff00"
     y="125.37701"
     x="155.65601" /><rect
     id="rect18"
     height="5.2399998"
     width="19.743999"
     style="fill:#5b5c5f"
     y="125.37701"
     x="128.44" /><rect
     id="rect20"
     height="5.2399998"
     width="19.743999"
     style="fill:#00ff00"
     y="125.37701"
     x="101.24001" /><circle
     id="circle22"
     r="21.152"
     cy="210.569"
     cx="182.608"
     style="fill:#5b5c5f" /><path
     id="path24"
     d="m 182.608,233.05701 c -12.392,0 -22.488,-10.096 -22.488,-22.488 0,-12.392 10.096,-22.488 22.488,-22.488 12.392,0 22.488,10.096 22.488,22.488 0,12.392 -10.096,22.488 -22.488,22.488 z m 0,-42.312 c -10.928,0 -19.824,8.896 -19.824,19.824 0,10.928 8.896,19.824 19.824,19.824 10.928,0 19.824,-8.896 19.824,-19.824 0,-10.928 -8.896,-19.824 -19.824,-19.824 z"
     style="fill:#999999"
     inkscape:connector-curvature="0" /><circle
     id="circle26"
     r="15.024"
     cy="210.569"
     cx="182.608" /><circle
     id="circle28"
     r="6.3920002"
     cy="210.569"
     cx="182.608"
     style="fill:#00ff00" /><g
     transform="translate(-144.612,0.00101318)"
     id="g32"
     style="opacity:0.5;fill:#00ff00">
	<rect
   id="rect30"
   height="20.096001"
   width="66.400002"
   style="fill:#00ff00"
   y="421.56799"
   x="222.812" />
</g><path
     id="path34"
     d="M 176.056,142.35301 H 46.744 l -18.32,26.416 c 1.2,0.176 2.424,0.304 3.688,0.304 h 158.584 c 1.264,0 2.488,-0.128 3.688,-0.304 z"
     style="fill:#5b5c5f"
     inkscape:connector-curvature="0" /><circle
     id="circle36"
     r="3.928"
     cy="155.705"
     cx="124.92001" /><circle
     id="circle38"
     r="3.928"
     cy="155.705"
     cx="138.776" /><circle
     id="circle40"
     r="3.928"
     cy="155.705"
     cx="152.60001" /><circle
     id="circle42"
     r="3.928"
     cy="155.705"
     cx="166.48801" /><g
     transform="translate(-144.612,0.00101318)"
     id="g46"
     style="opacity:0.25">
	<path
   id="path44"
   d="M 356.924,0 H 256.012 v 485.792 h 100.912 c 5.768,0 10.488,-4.72 10.488,-10.488 V 10.488 C 367.412,4.72 362.692,0 356.924,0 Z"
   style="fill:#ffffff"
   inkscape:connector-curvature="0" />
</g><rect
     id="rect48"
     height="5.336"
     width="24.24"
     y="153.041"
     x="52.072006" /><rect
     id="rect50"
     height="5.336"
     width="24.24"
     y="153.041"
     x="87.152008" /><g
     transform="translate(-144.612,0.00101318)"
     id="g52">
</g><g
     transform="translate(-144.612,0.00101318)"
     id="g54">
</g><g
     transform="translate(-144.612,0.00101318)"
     id="g56">
</g><g
     transform="translate(-144.612,0.00101318)"
     id="g58">
</g><g
     transform="translate(-144.612,0.00101318)"
     id="g60">
</g><g
     transform="translate(-144.612,0.00101318)"
     id="g62">
</g><g
     transform="translate(-144.612,0.00101318)"
     id="g64">
</g><g
     transform="translate(-144.612,0.00101318)"
     id="g66">
</g><g
     transform="translate(-144.612,0.00101318)"
     id="g68">
</g><g
     transform="translate(-144.612,0.00101318)"
     id="g70">
</g><g
     transform="translate(-144.612,0.00101318)"
     id="g72">
</g><g
     transform="translate(-144.612,0.00101318)"
     id="g74">
</g><g
     transform="translate(-144.612,0.00101318)"
     id="g76">
</g><g
     transform="translate(-144.612,0.00101318)"
     id="g78">
</g><g
     transform="translate(-144.612,0.00101318)"
     id="g80">
</g><rect
     y="15.289013"
     x="11.143996"
     height="58.976002"
     width="200.56"
     id="rect46"
     style="fill:#00c700;fill-opacity:1;stroke:none;stroke-width:1;stroke-miterlimit:4;stroke-dasharray:none;stroke-opacity:1" /></g></svg>